<svg xmlns="http://www.w3.org/2000/svg" width="2600" height="1600"><path d="M716,-320L1159,-260L1450,-279Z" fill="#c4e8d5" stroke="#c4e8d5" stroke-width="1.51"/><path d="M716,-320L1450,-279L1601,-289Z" fill="#bde5d8" stroke="#bde5d8" stroke-width="1.51"/><path d="M1659,1870L1223,1919L2084,1898Z" fill="#367aab" stroke="#367aab" stroke-width="1.51"/><path d="M2071,-259L2341,-171L2512,-184Z" fill="#96b6cf" stroke="#96b6cf" stroke-width="1.51"/><path d="M2071,-259L2512,-184L2613,-181Z" fill="#94b2cd" stroke="#94b2cd" stroke-width="1.51"/><path d="M2084,1898L1223,1919L2746,1919Z" fill="#2269a2" stroke="#2269a2" stroke-width="1.51"/><path d="M2550,1893L2379,1886L2746,1919Z" fill="#095295" stroke="#095295" stroke-width="1.51"/><path d="M2379,1886L2084,1898L2746,1919Z" fill="#105a9a" stroke="#105a9a" stroke-width="1.51"/><path d="M2071,-259L2613,-181L2787,-166Z" fill="#91adca" stroke="#91adca" stroke-width="1.51"/><path d="M2761,663L2769,815L2818,517Z" fill="#5d8ca6" stroke="#5d8ca6" stroke-width="1.51"/><path d="M2769,815L2681,1018L2852,1090Z" fill="#4082ae" stroke="#4082ae" stroke-width="1.51"/><path d="M2818,517L2769,815L2852,1090Z" fill="#4e87a7" stroke="#4e87a7" stroke-width="1.51"/><path d="M2826,1508L2658,1723L2873,1757Z" fill="#0a589a" stroke="#0a589a" stroke-width="1.51"/><path d="M2602,263L2619,357L2880,217Z" fill="#7b9bae" stroke="#7b9bae" stroke-width="1.51"/><path d="M2861,-15L2830,130L2880,217Z" fill="#7e94ab" stroke="#7e94ab" stroke-width="1.51"/><path d="M2823,1199L2677,1278L2887,1408Z" fill="#236ea7" stroke="#236ea7" stroke-width="1.51"/><path d="M2852,1090L2823,1199L2887,1408Z" fill="#2870a7" stroke="#2870a7" stroke-width="1.51"/><path d="M2826,1508L2873,1757L2887,1408Z" fill="#115b9b" stroke="#115b9b" stroke-width="1.51"/><path d="M2880,217L2619,357L2895,325Z" fill="#7895a8" stroke="#7895a8" stroke-width="1.51"/><path d="M2619,357L2818,517L2895,325Z" fill="#7293a6" stroke="#7293a6" stroke-width="1.51"/><path d="M2818,517L2852,1090L2895,325Z" fill="#5e89a2" stroke="#5e89a2" stroke-width="1.51"/><path d="M2861,-15L2880,217L2895,325Z" fill="#7c92a7" stroke="#7c92a7" stroke-width="1.51"/><path d="M2852,1090L2887,1408L2895,325Z" fill="#417ea7" stroke="#417ea7" stroke-width="1.51"/><path d="M2643,1384L2826,1508L2887,1408Z" fill="#1a66a3" stroke="#1a66a3" stroke-width="1.51"/><path d="M2677,1278L2643,1384L2887,1408Z" fill="#1e6da8" stroke="#1e6da8" stroke-width="1.51"/><path d="M2619,357L2673,516L2818,517Z" fill="#6f96a8" stroke="#6f96a8" stroke-width="1.51"/><path d="M2609,1596L2658,1723L2826,1508Z" fill="#0d60a2" stroke="#0d60a2" stroke-width="1.51"/><path d="M2787,-166L2707,-121L2861,-15Z" fill="#879bb7" stroke="#879bb7" stroke-width="1.51"/><path d="M2830,130L2602,263L2880,217Z" fill="#7e98ad" stroke="#7e98ad" stroke-width="1.51"/><path d="M1301,1899L1223,1919L1659,1870Z" fill="#4982a7" stroke="#4982a7" stroke-width="1.51"/><path d="M2658,1723L2746,1919L2873,1757Z" fill="#094f91" stroke="#094f91" stroke-width="1.51"/><path d="M2588,64L2830,130L2861,-15Z" fill="#829ab2" stroke="#829ab2" stroke-width="1.51"/><path d="M2707,-121L2588,64L2861,-15Z" fill="#869eb8" stroke="#869eb8" stroke-width="1.51"/><path d="M2634,934L2681,1018L2769,815Z" fill="#4689b1" stroke="#4689b1" stroke-width="1.51"/><path d="M2681,1018L2823,1199L2852,1090Z" fill="#327caf" stroke="#327caf" stroke-width="1.51"/><path d="M2673,516L2761,663L2818,517Z" fill="#6691a6" stroke="#6691a6" stroke-width="1.51"/><path d="M2681,1018L2677,1278L2823,1199Z" fill="#2e7bb0" stroke="#2e7bb0" stroke-width="1.51"/><path d="M2588,64L2602,263L2830,130Z" fill="#819eb4" stroke="#819eb4" stroke-width="1.51"/><path d="M2643,1384L2578,1472L2826,1508Z" fill="#196aa8" stroke="#196aa8" stroke-width="1.51"/><path d="M2578,1472L2609,1596L2826,1508Z" fill="#1467a6" stroke="#1467a6" stroke-width="1.51"/><path d="M2658,1723L2607,1834L2746,1919Z" fill="#0a5294" stroke="#0a5294" stroke-width="1.51"/><path d="M1533,1868L1301,1899L1659,1870Z" fill="#4380a9" stroke="#4380a9" stroke-width="1.51"/><path d="M2556,1138L2677,1278L2681,1018Z" fill="#3081b5" stroke="#3081b5" stroke-width="1.51"/><path d="M2761,663L2670,684L2769,815Z" fill="#588eaa" stroke="#588eaa" stroke-width="1.51"/><path d="M2613,-181L2707,-121L2787,-166Z" fill="#8ba0bd" stroke="#8ba0bd" stroke-width="1.51"/><path d="M2673,516L2670,684L2761,663Z" fill="#6293aa" stroke="#6293aa" stroke-width="1.51"/><path d="M2670,684L2545,810L2769,815Z" fill="#5491af" stroke="#5491af" stroke-width="1.51"/><path d="M2545,810L2634,934L2769,815Z" fill="#4c8eb2" stroke="#4c8eb2" stroke-width="1.51"/><path d="M1601,-289L1770,-248L2071,-259Z" fill="#a6d0dd" stroke="#a6d0dd" stroke-width="1.51"/><path d="M2607,1834L2550,1893L2746,1919Z" fill="#094f92" stroke="#094f92" stroke-width="1.51"/><path d="M2613,-181L2588,64L2707,-121Z" fill="#89a3be" stroke="#89a3be" stroke-width="1.51"/><path d="M2460,-105L2588,64L2613,-181Z" fill="#8ba7c3" stroke="#8ba7c3" stroke-width="1.51"/><path d="M2473,666L2670,684L2673,516Z" fill="#6497af" stroke="#6497af" stroke-width="1.51"/><path d="M2634,934L2556,1138L2681,1018Z" fill="#3a88b7" stroke="#3a88b7" stroke-width="1.51"/><path d="M2619,357L2496,342L2673,516Z" fill="#759db0" stroke="#759db0" stroke-width="1.51"/><path d="M2436,630L2473,666L2673,516Z" fill="#679cb3" stroke="#679cb3" stroke-width="1.51"/><path d="M2510,1389L2643,1384L2677,1278Z" fill="#1f75af" stroke="#1f75af" stroke-width="1.51"/><path d="M2556,1138L2510,1389L2677,1278Z" fill="#267cb4" stroke="#267cb4" stroke-width="1.51"/><path d="M2452,985L2556,1138L2634,934Z" fill="#3c8cbc" stroke="#3c8cbc" stroke-width="1.51"/><path d="M2496,342L2436,630L2673,516Z" fill="#709eb0" stroke="#709eb0" stroke-width="1.51"/><path d="M2473,666L2545,810L2670,684Z" fill="#5b97b3" stroke="#5b97b3" stroke-width="1.51"/><path d="M2460,-105L2511,64L2588,64Z" fill="#89a9c2" stroke="#89a9c2" stroke-width="1.51"/><path d="M2588,64L2511,64L2602,263Z" fill="#84a4bb" stroke="#84a4bb" stroke-width="1.51"/><path d="M2512,-184L2460,-105L2613,-181Z" fill="#8fabc7" stroke="#8fabc7" stroke-width="1.51"/><path d="M2609,1596L2492,1753L2658,1723Z" fill="#0960a4" stroke="#0960a4" stroke-width="1.51"/><path d="M2492,1753L2607,1834L2658,1723Z" fill="#0a5a9d" stroke="#0a5a9d" stroke-width="1.51"/><path d="M2400,1218L2510,1389L2556,1138Z" fill="#2882ba" stroke="#2882ba" stroke-width="1.51"/><path d="M2510,1389L2578,1472L2643,1384Z" fill="#1b72af" stroke="#1b72af" stroke-width="1.51"/><path d="M2545,810L2452,985L2634,934Z" fill="#4892b9" stroke="#4892b9" stroke-width="1.51"/><path d="M2406,364L2436,630L2496,342Z" fill="#75a5b5" stroke="#75a5b5" stroke-width="1.51"/><path d="M2511,64L2431,271L2602,263Z" fill="#83a6ba" stroke="#83a6ba" stroke-width="1.51"/><path d="M2602,263L2496,342L2619,357Z" fill="#7ba1b3" stroke="#7ba1b3" stroke-width="1.51"/><path d="M2380,1662L2492,1753L2609,1596Z" fill="#0966a9" stroke="#0966a9" stroke-width="1.51"/><path d="M2578,1472L2380,1662L2609,1596Z" fill="#0f6bad" stroke="#0f6bad" stroke-width="1.51"/><path d="M2492,1753L2550,1893L2607,1834Z" fill="#09589b" stroke="#09589b" stroke-width="1.51"/><path d="M2431,271L2496,342L2602,263Z" fill="#7ea5b8" stroke="#7ea5b8" stroke-width="1.51"/><path d="M2510,1389L2326,1421L2578,1472Z" fill="#1b77b4" stroke="#1b77b4" stroke-width="1.51"/><path d="M2326,1421L2380,1662L2578,1472Z" fill="#1772b1" stroke="#1772b1" stroke-width="1.51"/><path d="M2406,364L2351,608L2436,630Z" fill="#70a4b5" stroke="#70a4b5" stroke-width="1.51"/><path d="M2460,-105L2401,8L2511,64Z" fill="#8bacc4" stroke="#8bacc4" stroke-width="1.51"/><path d="M2364,812L2452,985L2545,810Z" fill="#4e98bb" stroke="#4e98bb" stroke-width="1.51"/><path d="M2492,1753L2379,1886L2550,1893Z" fill="#0b5a9c" stroke="#0b5a9c" stroke-width="1.51"/><path d="M2452,985L2389,1004L2556,1138Z" fill="#3b90c0" stroke="#3b90c0" stroke-width="1.51"/><path d="M2389,1004L2400,1218L2556,1138Z" fill="#338cbf" stroke="#338cbf" stroke-width="1.51"/><path d="M2473,666L2364,812L2545,810Z" fill="#589bb9" stroke="#589bb9" stroke-width="1.51"/><path d="M2326,1421L2279,1598L2380,1662Z" fill="#1a74b2" stroke="#1a74b2" stroke-width="1.51"/><path d="M2401,8L2317,266L2431,271Z" fill="#86adbf" stroke="#86adbf" stroke-width="1.51"/><path d="M2400,1218L2326,1421L2510,1389Z" fill="#237fb8" stroke="#237fb8" stroke-width="1.51"/><path d="M2401,8L2431,271L2511,64Z" fill="#87abc0" stroke="#87abc0" stroke-width="1.51"/><path d="M2341,-171L2460,-105L2512,-184Z" fill="#91afca" stroke="#91afca" stroke-width="1.51"/><path d="M2372,649L2364,812L2473,666Z" fill="#5f9fb8" stroke="#5f9fb8" stroke-width="1.51"/><path d="M2431,271L2406,364L2496,342Z" fill="#7da7b9" stroke="#7da7b9" stroke-width="1.51"/><path d="M2364,812L2389,1004L2452,985Z" fill="#4897be" stroke="#4897be" stroke-width="1.51"/><path d="M2380,1662L2379,1886L2492,1753Z" fill="#1062a4" stroke="#1062a4" stroke-width="1.51"/><path d="M2436,630L2372,649L2473,666Z" fill="#64a0b6" stroke="#64a0b6" stroke-width="1.51"/><path d="M2341,-171L2401,8L2460,-105Z" fill="#8fb0c8" stroke="#8fb0c8" stroke-width="1.51"/><path d="M2341,-171L2271,-103L2401,8Z" fill="#90b3ca" stroke="#90b3ca" stroke-width="1.51"/><path d="M2187,7L2238,261L2317,266Z" fill="#89b4c2" stroke="#89b4c2" stroke-width="1.51"/><path d="M2071,-259L2169,-162L2341,-171Z" fill="#98bcd1" stroke="#98bcd1" stroke-width="1.51"/><path d="M2212,1665L2379,1886L2380,1662Z" fill="#1469a8" stroke="#1469a8" stroke-width="1.51"/><path d="M2389,1004L2223,984L2400,1218Z" fill="#3a94c3" stroke="#3a94c3" stroke-width="1.51"/><path d="M2187,7L2317,266L2401,8Z" fill="#8bb2c3" stroke="#8bb2c3" stroke-width="1.51"/><path d="M2106,446L2351,608L2406,364Z" fill="#76abb8" stroke="#76abb8" stroke-width="1.51"/><path d="M2317,266L2406,364L2431,271Z" fill="#80abbb" stroke="#80abbb" stroke-width="1.51"/><path d="M2351,608L2372,649L2436,630Z" fill="#67a2b7" stroke="#67a2b7" stroke-width="1.51"/><path d="M2364,812L2223,984L2389,1004Z" fill="#4a9bc0" stroke="#4a9bc0" stroke-width="1.51"/><path d="M2189,1337L2326,1421L2400,1218Z" fill="#2885bb" stroke="#2885bb" stroke-width="1.51"/><path d="M2160,1242L2189,1337L2400,1218Z" fill="#2e8bbe" stroke="#2e8bbe" stroke-width="1.51"/><path d="M2223,984L2160,1242L2400,1218Z" fill="#3693c3" stroke="#3693c3" stroke-width="1.51"/><path d="M2317,266L2238,261L2406,364Z" fill="#82aebc" stroke="#82aebc" stroke-width="1.51"/><path d="M2238,261L2106,446L2406,364Z" fill="#7fb0bc" stroke="#7fb0bc" stroke-width="1.51"/><path d="M2271,-103L2187,7L2401,8Z" fill="#8fb5c9" stroke="#8fb5c9" stroke-width="1.51"/><path d="M2106,446L2161,630L2351,608Z" fill="#71adb9" stroke="#71adb9" stroke-width="1.51"/><path d="M2153,687L2364,812L2372,649Z" fill="#60a4bb" stroke="#60a4bb" stroke-width="1.51"/><path d="M2103,1866L2084,1898L2379,1886Z" fill="#1b64a0" stroke="#1b64a0" stroke-width="1.51"/><path d="M2212,1665L2103,1866L2379,1886Z" fill="#1968a5" stroke="#1968a5" stroke-width="1.51"/><path d="M2279,1598L2212,1665L2380,1662Z" fill="#1671b1" stroke="#1671b1" stroke-width="1.51"/><path d="M2161,630L2153,687L2351,608Z" fill="#69aabb" stroke="#69aabb" stroke-width="1.51"/><path d="M2147,810L2223,984L2364,812Z" fill="#52a2c0" stroke="#52a2c0" stroke-width="1.51"/><path d="M2153,687L2147,810L2364,812Z" fill="#5ca7be" stroke="#5ca7be" stroke-width="1.51"/><path d="M2351,608L2153,687L2372,649Z" fill="#67a7b9" stroke="#67a7b9" stroke-width="1.51"/><path d="M2098,356L2106,446L2238,261Z" fill="#81b5be" stroke="#81b5be" stroke-width="1.51"/><path d="M2210,1597L2279,1598L2326,1421Z" fill="#1d78b5" stroke="#1d78b5" stroke-width="1.51"/><path d="M1931,1844L1659,1870L2084,1898Z" fill="#2a72a8" stroke="#2a72a8" stroke-width="1.51"/><path d="M2169,-162L2271,-103L2341,-171Z" fill="#95b7ce" stroke="#95b7ce" stroke-width="1.51"/><path d="M2189,1337L2210,1597L2326,1421Z" fill="#237fb8" stroke="#237fb8" stroke-width="1.51"/><path d="M2178,-60L2187,7L2271,-103Z" fill="#92b9cb" stroke="#92b9cb" stroke-width="1.51"/><path d="M2189,1337L1996,1486L2210,1597Z" fill="#2583ba" stroke="#2583ba" stroke-width="1.51"/><path d="M2187,7L1982,166L2238,261Z" fill="#8dbac5" stroke="#8dbac5" stroke-width="1.51"/><path d="M2210,1597L2212,1665L2279,1598Z" fill="#1a75b3" stroke="#1a75b3" stroke-width="1.51"/><path d="M2169,-162L2178,-60L2271,-103Z" fill="#94bacd" stroke="#94bacd" stroke-width="1.51"/><path d="M1996,1486L2065,1626L2210,1597Z" fill="#227fb8" stroke="#227fb8" stroke-width="1.51"/><path d="M2065,1626L2103,1866L2212,1665Z" fill="#1d73ae" stroke="#1d73ae" stroke-width="1.51"/><path d="M2147,810L2092,815L2223,984Z" fill="#53a6c2" stroke="#53a6c2" stroke-width="1.51"/><path d="M1968,1147L2160,1242L2223,984Z" fill="#3b9bc6" stroke="#3b9bc6" stroke-width="1.51"/><path d="M1957,1046L1968,1147L2223,984Z" fill="#42a3ca" stroke="#42a3ca" stroke-width="1.51"/><path d="M1982,166L2098,356L2238,261Z" fill="#88b9c2" stroke="#88b9c2" stroke-width="1.51"/><path d="M2092,815L1957,1046L2223,984Z" fill="#4da6c5" stroke="#4da6c5" stroke-width="1.51"/><path d="M2210,1597L2065,1626L2212,1665Z" fill="#1c77b4" stroke="#1c77b4" stroke-width="1.51"/><path d="M2004,1321L1996,1486L2189,1337Z" fill="#2c8cbf" stroke="#2c8cbf" stroke-width="1.51"/><path d="M1946,70L1982,166L2187,7Z" fill="#91c0ca" stroke="#91c0ca" stroke-width="1.51"/><path d="M2160,1242L2004,1321L2189,1337Z" fill="#2f8fc0" stroke="#2f8fc0" stroke-width="1.51"/><path d="M2178,-60L1946,70L2187,7Z" fill="#92bdcb" stroke="#92bdcb" stroke-width="1.51"/><path d="M2092,815L2147,810L2153,687Z" fill="#5dabc0" stroke="#5dabc0" stroke-width="1.51"/><path d="M2106,446L1951,564L2161,630Z" fill="#75b4bb" stroke="#75b4bb" stroke-width="1.51"/><path d="M1953,-103L1923,-48L2178,-60Z" fill="#97c3d0" stroke="#97c3d0" stroke-width="1.51"/><path d="M1923,-48L1946,70L2178,-60Z" fill="#95c2ce" stroke="#95c2ce" stroke-width="1.51"/><path d="M2169,-162L1953,-103L2178,-60Z" fill="#96bfd0" stroke="#96bfd0" stroke-width="1.51"/><path d="M1951,564L1989,667L2161,630Z" fill="#6fb4be" stroke="#6fb4be" stroke-width="1.51"/><path d="M2071,-259L1953,-103L2169,-162Z" fill="#9ac2d3" stroke="#9ac2d3" stroke-width="1.51"/><path d="M2065,1626L1931,1844L2103,1866Z" fill="#2272ac" stroke="#2272ac" stroke-width="1.51"/><path d="M1968,1147L2004,1321L2160,1242Z" fill="#3797c4" stroke="#3797c4" stroke-width="1.51"/><path d="M1989,667L2153,687L2161,630Z" fill="#69afbe" stroke="#69afbe" stroke-width="1.51"/><path d="M1989,667L2092,815L2153,687Z" fill="#64afc0" stroke="#64afc0" stroke-width="1.51"/><path d="M1908,857L1957,1046L2092,815Z" fill="#54acc7" stroke="#54acc7" stroke-width="1.51"/><path d="M1982,166L1910,370L2098,356Z" fill="#89bec3" stroke="#89bec3" stroke-width="1.51"/><path d="M1931,1844L2084,1898L2103,1866Z" fill="#226ba5" stroke="#226ba5" stroke-width="1.51"/><path d="M2098,356L1910,370L2106,446Z" fill="#82b9bf" stroke="#82b9bf" stroke-width="1.51"/><path d="M1910,370L1951,564L2106,446Z" fill="#7ebbbf" stroke="#7ebbbf" stroke-width="1.51"/><path d="M1989,667L1899,776L2092,815Z" fill="#63b2c3" stroke="#63b2c3" stroke-width="1.51"/><path d="M1829,1688L1931,1844L2065,1626Z" fill="#287bb3" stroke="#287bb3" stroke-width="1.51"/><path d="M1899,776L1908,857L2092,815Z" fill="#5db2c5" stroke="#5db2c5" stroke-width="1.51"/><path d="M1908,857L1881,1000L1957,1046Z" fill="#52adcb" stroke="#52adcb" stroke-width="1.51"/><path d="M1783,-221L1953,-103L2071,-259Z" fill="#9fc9d7" stroke="#9fc9d7" stroke-width="1.51"/><path d="M1770,-248L1783,-221L2071,-259Z" fill="#a3cdda" stroke="#a3cdda" stroke-width="1.51"/><path d="M1900,1391L1996,1486L2004,1321Z" fill="#3090c0" stroke="#3090c0" stroke-width="1.51"/><path d="M1996,1486L1917,1479L2065,1626Z" fill="#2a86bc" stroke="#2a86bc" stroke-width="1.51"/><path d="M1917,1479L1829,1688L2065,1626Z" fill="#2a84bb" stroke="#2a84bb" stroke-width="1.51"/><path d="M1809,188L1910,370L1982,166Z" fill="#90c4c7" stroke="#90c4c7" stroke-width="1.51"/><path d="M1900,1391L1917,1479L1996,1486Z" fill="#308ec0" stroke="#308ec0" stroke-width="1.51"/><path d="M1968,1147L1920,1157L2004,1321Z" fill="#3c9dc7" stroke="#3c9dc7" stroke-width="1.51"/><path d="M1920,1157L1900,1391L2004,1321Z" fill="#3898c4" stroke="#3898c4" stroke-width="1.51"/><path d="M1910,370L1814,543L1951,564Z" fill="#7fbec1" stroke="#7fbec1" stroke-width="1.51"/><path d="M1957,1046L1920,1157L1968,1147Z" fill="#42a4cb" stroke="#42a4cb" stroke-width="1.51"/><path d="M1951,564L1773,625L1989,667Z" fill="#73bac2" stroke="#73bac2" stroke-width="1.51"/><path d="M1773,625L1899,776L1989,667Z" fill="#6dbac4" stroke="#6dbac4" stroke-width="1.51"/><path d="M1946,70L1806,144L1982,166Z" fill="#94c5cc" stroke="#94c5cc" stroke-width="1.51"/><path d="M1806,144L1809,188L1982,166Z" fill="#94c7cb" stroke="#94c7cb" stroke-width="1.51"/><path d="M1814,543L1773,625L1951,564Z" fill="#79bec2" stroke="#79bec2" stroke-width="1.51"/><path d="M1735,1142L1900,1391L1920,1157Z" fill="#40a1ca" stroke="#40a1ca" stroke-width="1.51"/><path d="M1881,1000L1920,1157L1957,1046Z" fill="#47a8cd" stroke="#47a8cd" stroke-width="1.51"/><path d="M1783,-221L1923,-48L1953,-103Z" fill="#9ecbd5" stroke="#9ecbd5" stroke-width="1.51"/><path d="M1923,-48L1806,144L1946,70Z" fill="#97c7cf" stroke="#97c7cf" stroke-width="1.51"/><path d="M1735,1142L1737,1419L1900,1391Z" fill="#3d9ec7" stroke="#3d9ec7" stroke-width="1.51"/><path d="M1809,188L1722,331L1910,370Z" fill="#8fc7c8" stroke="#8fc7c8" stroke-width="1.51"/><path d="M1737,1419L1829,1688L1917,1479Z" fill="#338ec0" stroke="#338ec0" stroke-width="1.51"/><path d="M1881,1000L1735,1142L1920,1157Z" fill="#48aace" stroke="#48aace" stroke-width="1.51"/><path d="M1718,-89L1806,144L1923,-48Z" fill="#9bccd3" stroke="#9bccd3" stroke-width="1.51"/><path d="M1783,-221L1718,-89L1923,-48Z" fill="#a0ced7" stroke="#a0ced7" stroke-width="1.51"/><path d="M1829,1688L1704,1721L1931,1844Z" fill="#2e7eb4" stroke="#2e7eb4" stroke-width="1.51"/><path d="M1704,1721L1659,1870L1931,1844Z" fill="#307cb0" stroke="#307cb0" stroke-width="1.51"/><path d="M1728,860L1881,1000L1908,857Z" fill="#5ab3cb" stroke="#5ab3cb" stroke-width="1.51"/><path d="M1737,1419L1642,1597L1829,1688Z" fill="#368fc1" stroke="#368fc1" stroke-width="1.51"/><path d="M1722,331L1814,543L1910,370Z" fill="#87c4c5" stroke="#87c4c5" stroke-width="1.51"/><path d="M1900,1391L1737,1419L1917,1479Z" fill="#3593c3" stroke="#3593c3" stroke-width="1.51"/><path d="M1899,776L1728,860L1908,857Z" fill="#60b7c9" stroke="#60b7c9" stroke-width="1.51"/><path d="M1773,625L1711,662L1899,776Z" fill="#70bec6" stroke="#70bec6" stroke-width="1.51"/><path d="M1711,662L1728,860L1899,776Z" fill="#68bcc9" stroke="#68bcc9" stroke-width="1.51"/><path d="M1718,-89L1725,138L1806,144Z" fill="#9bced2" stroke="#9bced2" stroke-width="1.51"/><path d="M1657,1049L1735,1142L1881,1000Z" fill="#4eb0d1" stroke="#4eb0d1" stroke-width="1.51"/><path d="M1728,860L1657,1049L1881,1000Z" fill="#57b5cf" stroke="#57b5cf" stroke-width="1.51"/><path d="M1735,1142L1587,1310L1737,1419Z" fill="#43a5cb" stroke="#43a5cb" stroke-width="1.51"/><path d="M1663,273L1722,331L1809,188Z" fill="#94cccb" stroke="#94cccb" stroke-width="1.51"/><path d="M1722,331L1572,448L1814,543Z" fill="#88cac7" stroke="#88cac7" stroke-width="1.51"/><path d="M1642,1597L1704,1721L1829,1688Z" fill="#338abd" stroke="#338abd" stroke-width="1.51"/><path d="M1718,-89L1598,54L1725,138Z" fill="#9fd2d4" stroke="#9fd2d4" stroke-width="1.51"/><path d="M1725,138L1663,273L1809,188Z" fill="#97cdcd" stroke="#97cdcd" stroke-width="1.51"/><path d="M1575,545L1773,625L1814,543Z" fill="#7ec5c5" stroke="#7ec5c5" stroke-width="1.51"/><path d="M1572,448L1575,545L1814,543Z" fill="#85c9c3" stroke="#85c9c3" stroke-width="1.51"/><path d="M1806,144L1725,138L1809,188Z" fill="#97cbce" stroke="#97cbce" stroke-width="1.51"/><path d="M1601,-289L1718,-89L1770,-248Z" fill="#a8d5de" stroke="#a8d5de" stroke-width="1.51"/><path d="M1575,545L1711,662L1773,625Z" fill="#7bc5c7" stroke="#7bc5c7" stroke-width="1.51"/><path d="M1770,-248L1718,-89L1783,-221Z" fill="#a5d2db" stroke="#a5d2db" stroke-width="1.51"/><path d="M1711,662L1539,785L1728,860Z" fill="#6dc1ca" stroke="#6dc1ca" stroke-width="1.51"/><path d="M1539,785L1496,1024L1657,1049Z" fill="#63bccd" stroke="#63bccd" stroke-width="1.51"/><path d="M1539,785L1657,1049L1728,860Z" fill="#63bdcd" stroke="#63bdcd" stroke-width="1.51"/><path d="M1521,1136L1587,1310L1735,1142Z" fill="#4eadcd" stroke="#4eadcd" stroke-width="1.51"/><path d="M1547,1593L1642,1597L1737,1419Z" fill="#3d95c2" stroke="#3d95c2" stroke-width="1.51"/><path d="M1587,1310L1547,1593L1737,1419Z" fill="#429cc5" stroke="#429cc5" stroke-width="1.51"/><path d="M1601,-289L1474,-110L1718,-89Z" fill="#a9d8da" stroke="#a9d8da" stroke-width="1.51"/><path d="M1657,1049L1521,1136L1735,1142Z" fill="#51b3d1" stroke="#51b3d1" stroke-width="1.51"/><path d="M1663,273L1572,448L1722,331Z" fill="#91cdc9" stroke="#91cdc9" stroke-width="1.51"/><path d="M1566,269L1663,273L1725,138Z" fill="#99d0cc" stroke="#99d0cc" stroke-width="1.51"/><path d="M1598,54L1566,269L1725,138Z" fill="#9cd2ce" stroke="#9cd2ce" stroke-width="1.51"/><path d="M1486,819L1496,1024L1539,785Z" fill="#6cc2ca" stroke="#6cc2ca" stroke-width="1.51"/><path d="M1474,-110L1598,54L1718,-89Z" fill="#a5d6d6" stroke="#a5d6d6" stroke-width="1.51"/><path d="M1544,1688L1659,1870L1704,1721Z" fill="#3985b5" stroke="#3985b5" stroke-width="1.51"/><path d="M1642,1597L1544,1688L1704,1721Z" fill="#3b8cbc" stroke="#3b8cbc" stroke-width="1.51"/><path d="M1575,545L1539,785L1711,662Z" fill="#7ac6c7" stroke="#7ac6c7" stroke-width="1.51"/><path d="M1544,1688L1533,1868L1659,1870Z" fill="#3d83b0" stroke="#3d83b0" stroke-width="1.51"/><path d="M1566,269L1572,448L1663,273Z" fill="#95d0c8" stroke="#95d0c8" stroke-width="1.51"/><path d="M1458,201L1566,269L1598,54Z" fill="#9fd5cc" stroke="#9fd5cc" stroke-width="1.51"/><path d="M1547,1593L1544,1688L1642,1597Z" fill="#4091be" stroke="#4091be" stroke-width="1.51"/><path d="M1450,1292L1355,1507L1547,1593Z" fill="#4e9fc1" stroke="#4e9fc1" stroke-width="1.51"/><path d="M1450,1292L1547,1593L1587,1310Z" fill="#4ba2c5" stroke="#4ba2c5" stroke-width="1.51"/><path d="M1496,1024L1521,1136L1657,1049Z" fill="#59b8d0" stroke="#59b8d0" stroke-width="1.51"/><path d="M1566,269L1344,415L1572,448Z" fill="#95d2c4" stroke="#95d2c4" stroke-width="1.51"/><path d="M1418,803L1539,785L1575,545Z" fill="#7ac8c6" stroke="#7ac8c6" stroke-width="1.51"/><path d="M1309,592L1418,803L1575,545Z" fill="#83ccc3" stroke="#83ccc3" stroke-width="1.51"/><path d="M1521,1136L1439,1219L1587,1310Z" fill="#54aeca" stroke="#54aeca" stroke-width="1.51"/><path d="M1439,1219L1450,1292L1587,1310Z" fill="#52acc8" stroke="#52acc8" stroke-width="1.51"/><path d="M1474,-110L1397,69L1598,54Z" fill="#a7d9d2" stroke="#a7d9d2" stroke-width="1.51"/><path d="M1397,69L1458,201L1598,54Z" fill="#a3d7cd" stroke="#a3d7cd" stroke-width="1.51"/><path d="M1450,-279L1474,-110L1601,-289Z" fill="#afdcdb" stroke="#afdcdb" stroke-width="1.51"/><path d="M-238,-244L75,-237L452,-310Z" fill="#e9f7e3" stroke="#e9f7e3" stroke-width="1.51"/><path d="M1353,1710L1533,1868L1544,1688Z" fill="#468ab3" stroke="#468ab3" stroke-width="1.51"/><path d="M1458,201L1344,415L1566,269Z" fill="#9cd5c6" stroke="#9cd5c6" stroke-width="1.51"/><path d="M1572,448L1344,415L1575,545Z" fill="#8fd0c2" stroke="#8fd0c2" stroke-width="1.51"/><path d="M1344,415L1309,592L1575,545Z" fill="#8fd1bf" stroke="#8fd1bf" stroke-width="1.51"/><path d="M1309,592L1372,795L1418,803Z" fill="#7eccc4" stroke="#7eccc4" stroke-width="1.51"/><path d="M1486,819L1418,803L1496,1024Z" fill="#6ec3ca" stroke="#6ec3ca" stroke-width="1.51"/><path d="M1418,803L1486,819L1539,785Z" fill="#72c6c8" stroke="#72c6c8" stroke-width="1.51"/><path d="M1353,1710L1544,1688L1547,1593Z" fill="#4692ba" stroke="#4692ba" stroke-width="1.51"/><path d="M1355,1507L1353,1710L1547,1593Z" fill="#4c97bc" stroke="#4c97bc" stroke-width="1.51"/><path d="M1062,1865L731,1901L1223,1919Z" fill="#628aa0" stroke="#628aa0" stroke-width="1.51"/><path d="M1418,803L1349,1026L1496,1024Z" fill="#6bc1cb" stroke="#6bc1cb" stroke-width="1.51"/><path d="M1347,-33L1397,69L1474,-110Z" fill="#abdcd1" stroke="#abdcd1" stroke-width="1.51"/><path d="M1353,1710L1301,1899L1533,1868Z" fill="#4a87ac" stroke="#4a87ac" stroke-width="1.51"/><path d="M1496,1024L1349,1026L1521,1136Z" fill="#60bbce" stroke="#60bbce" stroke-width="1.51"/><path d="M1349,1026L1439,1219L1521,1136Z" fill="#5db7cc" stroke="#5db7cc" stroke-width="1.51"/><path d="M1372,795L1273,856L1418,803Z" fill="#78c9c6" stroke="#78c9c6" stroke-width="1.51"/><path d="M1273,856L1349,1026L1418,803Z" fill="#73c6c8" stroke="#73c6c8" stroke-width="1.51"/><path d="M1450,-279L1347,-33L1474,-110Z" fill="#afddd6" stroke="#afddd6" stroke-width="1.51"/><path d="M1159,-260L1347,-33L1450,-279Z" fill="#b5e2d5" stroke="#b5e2d5" stroke-width="1.51"/><path d="M1199,1390L1355,1507L1450,1292Z" fill="#57a8c1" stroke="#57a8c1" stroke-width="1.51"/><path d="M1349,1026L1219,1200L1439,1219Z" fill="#62b9ca" stroke="#62b9ca" stroke-width="1.51"/><path d="M1397,69L1173,174L1458,201Z" fill="#a8dbc9" stroke="#a8dbc9" stroke-width="1.51"/><path d="M1173,174L1344,415L1458,201Z" fill="#a3dac5" stroke="#a3dac5" stroke-width="1.51"/><path d="M1439,1219L1219,1200L1450,1292Z" fill="#5cb2c7" stroke="#5cb2c7" stroke-width="1.51"/><path d="M1219,1200L1199,1390L1450,1292Z" fill="#5eb0c4" stroke="#5eb0c4" stroke-width="1.51"/><path d="M1173,174L1157,360L1344,415Z" fill="#a4dbc1" stroke="#a4dbc1" stroke-width="1.51"/><path d="M1234,1691L1353,1710L1355,1507Z" fill="#5298b9" stroke="#5298b9" stroke-width="1.51"/><path d="M1194,70L1173,174L1397,69Z" fill="#addfc9" stroke="#addfc9" stroke-width="1.51"/><path d="M716,-320L1068,-231L1159,-260Z" fill="#caead2" stroke="#caead2" stroke-width="1.51"/><path d="M1273,856L1236,999L1349,1026Z" fill="#71c5c8" stroke="#71c5c8" stroke-width="1.51"/><path d="M1309,592L1164,641L1372,795Z" fill="#87d0c0" stroke="#87d0c0" stroke-width="1.51"/><path d="M1347,-33L1194,70L1397,69Z" fill="#addecd" stroke="#addecd" stroke-width="1.51"/><path d="M1159,-260L1112,-80L1347,-33Z" fill="#b9e3d1" stroke="#b9e3d1" stroke-width="1.51"/><path d="M1236,999L1219,1200L1349,1026Z" fill="#6ac0cb" stroke="#6ac0cb" stroke-width="1.51"/><path d="M1234,1691L1301,1899L1353,1710Z" fill="#518faf" stroke="#518faf" stroke-width="1.51"/><path d="M1137,760L1273,856L1372,795Z" fill="#7ecdc4" stroke="#7ecdc4" stroke-width="1.51"/><path d="M1164,641L1137,760L1372,795Z" fill="#86cfc1" stroke="#86cfc1" stroke-width="1.51"/><path d="M1167,604L1309,592L1344,415Z" fill="#93d4bd" stroke="#93d4bd" stroke-width="1.51"/><path d="M1157,360L1167,604L1344,415Z" fill="#9cd7bd" stroke="#9cd7bd" stroke-width="1.51"/><path d="M1112,-80L1156,-3L1347,-33Z" fill="#b5e2ce" stroke="#b5e2ce" stroke-width="1.51"/><path d="M1164,1460L1234,1691L1355,1507Z" fill="#599fbb" stroke="#599fbb" stroke-width="1.51"/><path d="M1199,1390L1164,1460L1355,1507Z" fill="#5da6be" stroke="#5da6be" stroke-width="1.51"/><path d="M1234,1691L1223,1919L1301,1899Z" fill="#538aa9" stroke="#538aa9" stroke-width="1.51"/><path d="M1156,-3L1194,70L1347,-33Z" fill="#b2e1cc" stroke="#b2e1cc" stroke-width="1.51"/><path d="M1164,1460L1075,1602L1234,1691Z" fill="#5f9fb8" stroke="#5f9fb8" stroke-width="1.51"/><path d="M1167,604L1164,641L1309,592Z" fill="#90d3be" stroke="#90d3be" stroke-width="1.51"/><path d="M1109,1484L1075,1602L1164,1460Z" fill="#64a5b9" stroke="#64a5b9" stroke-width="1.51"/><path d="M1062,1865L1223,1919L1234,1691Z" fill="#598ca8" stroke="#598ca8" stroke-width="1.51"/><path d="M1044,923L1236,999L1273,856Z" fill="#7ac9c6" stroke="#7ac9c6" stroke-width="1.51"/><path d="M1137,760L1044,923L1273,856Z" fill="#82cdc3" stroke="#82cdc3" stroke-width="1.51"/><path d="M1157,360L1037,567L1167,604Z" fill="#9dd8ba" stroke="#9dd8ba" stroke-width="1.51"/><path d="M1125,178L1157,360L1173,174Z" fill="#aedec2" stroke="#aedec2" stroke-width="1.51"/><path d="M1134,127L1173,174L1194,70Z" fill="#b1e0c6" stroke="#b1e0c6" stroke-width="1.51"/><path d="M1028,1181L986,1367L1199,1390Z" fill="#6db3c0" stroke="#6db3c0" stroke-width="1.51"/><path d="M1010,1034L1028,1181L1219,1200Z" fill="#75c0c6" stroke="#75c0c6" stroke-width="1.51"/><path d="M1028,1181L1199,1390L1219,1200Z" fill="#6ab5c2" stroke="#6ab5c2" stroke-width="1.51"/><path d="M1075,1602L1062,1865L1234,1691Z" fill="#5e95b0" stroke="#5e95b0" stroke-width="1.51"/><path d="M1010,1034L1219,1200L1236,999Z" fill="#72c2c9" stroke="#72c2c9" stroke-width="1.51"/><path d="M1044,923L1010,1034L1236,999Z" fill="#7cc8c6" stroke="#7cc8c6" stroke-width="1.51"/><path d="M1068,-231L1112,-80L1159,-260Z" fill="#c0e6d1" stroke="#c0e6d1" stroke-width="1.51"/><path d="M840,1841L731,1901L1062,1865Z" fill="#6a8ea1" stroke="#6a8ea1" stroke-width="1.51"/><path d="M1125,178L1051,336L1157,360Z" fill="#acdec0" stroke="#acdec0" stroke-width="1.51"/><path d="M1051,336L1037,567L1157,360Z" fill="#a5dbbc" stroke="#a5dbbc" stroke-width="1.51"/><path d="M1109,1484L1164,1460L1199,1390Z" fill="#63a8bd" stroke="#63a8bd" stroke-width="1.51"/><path d="M986,1367L1109,1484L1199,1390Z" fill="#68acbd" stroke="#68acbd" stroke-width="1.51"/><path d="M1156,-3L1134,127L1194,70Z" fill="#b4e1c9" stroke="#b4e1c9" stroke-width="1.51"/><path d="M1134,127L1125,178L1173,174Z" fill="#b1e0c5" stroke="#b1e0c5" stroke-width="1.51"/><path d="M1037,567L1137,760L1164,641Z" fill="#93d4bd" stroke="#93d4bd" stroke-width="1.51"/><path d="M1037,567L1164,641L1167,604Z" fill="#96d5bc" stroke="#96d5bc" stroke-width="1.51"/><path d="M1037,567L931,643L1137,760Z" fill="#97d6bb" stroke="#97d6bb" stroke-width="1.51"/><path d="M887,67L1134,127L1156,-3Z" fill="#b9e3c7" stroke="#b9e3c7" stroke-width="1.51"/><path d="M1112,-80L887,67L1156,-3Z" fill="#bce5c9" stroke="#bce5c9" stroke-width="1.51"/><path d="M279,1799L-18,1875L731,1901Z" fill="#7f97ad" stroke="#7f97ad" stroke-width="1.51"/><path d="M846,1759L1062,1865L1075,1602Z" fill="#6696ac" stroke="#6696ac" stroke-width="1.51"/><path d="M877,-44L887,67L1112,-80Z" fill="#c1e6c8" stroke="#c1e6c8" stroke-width="1.51"/><path d="M1068,-231L976,-166L1112,-80Z" fill="#c2e7cf" stroke="#c2e7cf" stroke-width="1.51"/><path d="M913,863L1044,923L1137,760Z" fill="#89cfc1" stroke="#89cfc1" stroke-width="1.51"/><path d="M931,643L913,863L1137,760Z" fill="#91d4be" stroke="#91d4be" stroke-width="1.51"/><path d="M887,67L1125,178L1134,127Z" fill="#b7e3c4" stroke="#b7e3c4" stroke-width="1.51"/><path d="M843,263L1051,336L1125,178Z" fill="#b4e1be" stroke="#b4e1be" stroke-width="1.51"/><path d="M887,67L843,263L1125,178Z" fill="#bae4c1" stroke="#bae4c1" stroke-width="1.51"/><path d="M929,1521L1075,1602L1109,1484Z" fill="#69a4b8" stroke="#69a4b8" stroke-width="1.51"/><path d="M976,-166L877,-44L1112,-80Z" fill="#c2e7cb" stroke="#c2e7cb" stroke-width="1.51"/><path d="M850,477L1037,567L1051,336Z" fill="#a8ddb8" stroke="#a8ddb8" stroke-width="1.51"/><path d="M716,-320L976,-166L1068,-231Z" fill="#cbebd0" stroke="#cbebd0" stroke-width="1.51"/><path d="M986,1367L929,1521L1109,1484Z" fill="#6daab9" stroke="#6daab9" stroke-width="1.51"/><path d="M846,1759L840,1841L1062,1865Z" fill="#6991a4" stroke="#6991a4" stroke-width="1.51"/><path d="M929,1521L846,1759L1075,1602Z" fill="#6ca0b3" stroke="#6ca0b3" stroke-width="1.51"/><path d="M899,1432L929,1521L986,1367Z" fill="#72adb9" stroke="#72adb9" stroke-width="1.51"/><path d="M1010,1034L970,1034L1028,1181Z" fill="#7cc6c6" stroke="#7cc6c6" stroke-width="1.51"/><path d="M795,1641L846,1759L929,1521Z" fill="#71a1b3" stroke="#71a1b3" stroke-width="1.51"/><path d="M846,1174L986,1367L1028,1181Z" fill="#78bbc0" stroke="#78bbc0" stroke-width="1.51"/><path d="M970,1034L1010,1034L1044,923Z" fill="#81c9c4" stroke="#81c9c4" stroke-width="1.51"/><path d="M843,263L850,477L1051,336Z" fill="#b2e1ba" stroke="#b2e1ba" stroke-width="1.51"/><path d="M913,863L970,1034L1044,923Z" fill="#86ccc2" stroke="#86ccc2" stroke-width="1.51"/><path d="M970,1034L846,1174L1028,1181Z" fill="#7ec3c4" stroke="#7ec3c4" stroke-width="1.51"/><path d="M850,477L931,643L1037,567Z" fill="#a3dab7" stroke="#a3dab7" stroke-width="1.51"/><path d="M846,1174L797,1279L986,1367Z" fill="#7bbabe" stroke="#7bbabe" stroke-width="1.51"/><path d="M843,263L795,432L850,477Z" fill="#b4e1ba" stroke="#b4e1ba" stroke-width="1.51"/><path d="M778,844L913,863L931,643Z" fill="#95d5bd" stroke="#95d5bd" stroke-width="1.51"/><path d="M850,477L824,598L931,643Z" fill="#a6dcb7" stroke="#a6dcb7" stroke-width="1.51"/><path d="M797,1279L899,1432L986,1367Z" fill="#77b3bb" stroke="#77b3bb" stroke-width="1.51"/><path d="M913,863L733,1014L970,1034Z" fill="#8bcdc2" stroke="#8bcdc2" stroke-width="1.51"/><path d="M687,-116L877,-44L976,-166Z" fill="#caeacb" stroke="#caeacb" stroke-width="1.51"/><path d="M716,-320L687,-116L976,-166Z" fill="#d0edd0" stroke="#d0edd0" stroke-width="1.51"/><path d="M720,753L778,844L931,643Z" fill="#9bd7bd" stroke="#9bd7bd" stroke-width="1.51"/><path d="M733,1014L846,1174L970,1034Z" fill="#86c9c6" stroke="#86c9c6" stroke-width="1.51"/><path d="M445,1789L279,1799L731,1901Z" fill="#7d98ac" stroke="#7d98ac" stroke-width="1.51"/><path d="M766,615L720,753L824,598Z" fill="#a4dbbb" stroke="#a4dbbb" stroke-width="1.51"/><path d="M739,109L843,263L887,67Z" fill="#c1e7c2" stroke="#c1e7c2" stroke-width="1.51"/><path d="M778,844L733,1014L913,863Z" fill="#91d1c2" stroke="#91d1c2" stroke-width="1.51"/><path d="M899,1432L752,1510L929,1521Z" fill="#75abb8" stroke="#75abb8" stroke-width="1.51"/><path d="M752,1510L795,1641L929,1521Z" fill="#75a7b6" stroke="#75a7b6" stroke-width="1.51"/><path d="M824,598L720,753L931,643Z" fill="#a1dabb" stroke="#a1dabb" stroke-width="1.51"/><path d="M576,1815L445,1789L731,1901Z" fill="#7896a9" stroke="#7896a9" stroke-width="1.51"/><path d="M797,1279L731,1433L899,1432Z" fill="#7ab3bc" stroke="#7ab3bc" stroke-width="1.51"/><path d="M731,1433L752,1510L899,1432Z" fill="#79aeba" stroke="#79aeba" stroke-width="1.51"/><path d="M452,-310L608,-288L716,-320Z" fill="#ddf2d8" stroke="#ddf2d8" stroke-width="1.51"/><path d="M877,-44L739,109L887,67Z" fill="#c4e8c6" stroke="#c4e8c6" stroke-width="1.51"/><path d="M687,-116L739,109L877,-44Z" fill="#c9eac9" stroke="#c9eac9" stroke-width="1.51"/><path d="M739,109L679,160L843,263Z" fill="#c3e8c2" stroke="#c3e8c2" stroke-width="1.51"/><path d="M644,224L795,432L843,263Z" fill="#bde5be" stroke="#bde5be" stroke-width="1.51"/><path d="M731,1901L840,1841L846,1759Z" fill="#6e92a5" stroke="#6e92a5" stroke-width="1.51"/><path d="M733,1014L604,1191L846,1174Z" fill="#8ac7c7" stroke="#8ac7c7" stroke-width="1.51"/><path d="M766,615L824,598L850,477Z" fill="#a9ddb8" stroke="#a9ddb8" stroke-width="1.51"/><path d="M795,432L766,615L850,477Z" fill="#aedfb7" stroke="#aedfb7" stroke-width="1.51"/><path d="M679,160L644,224L843,263Z" fill="#c3e8c1" stroke="#c3e8c1" stroke-width="1.51"/><path d="M795,1641L576,1815L846,1759Z" fill="#749bad" stroke="#749bad" stroke-width="1.51"/><path d="M576,1815L731,1901L846,1759Z" fill="#7394a7" stroke="#7394a7" stroke-width="1.51"/><path d="M604,1191L797,1279L846,1174Z" fill="#85c0c3" stroke="#85c0c3" stroke-width="1.51"/><path d="M131,1815L-18,1875L279,1799Z" fill="#849bb5" stroke="#849bb5" stroke-width="1.51"/><path d="M687,-116L646,88L739,109Z" fill="#cbebc9" stroke="#cbebc9" stroke-width="1.51"/><path d="M644,224L553,454L795,432Z" fill="#bce5be" stroke="#bce5be" stroke-width="1.51"/><path d="M574,491L766,615L795,432Z" fill="#b1e1b9" stroke="#b1e1b9" stroke-width="1.51"/><path d="M523,1701L576,1815L795,1641Z" fill="#799eb1" stroke="#799eb1" stroke-width="1.51"/><path d="M604,1191L731,1433L797,1279Z" fill="#82bbc0" stroke="#82bbc0" stroke-width="1.51"/><path d="M553,454L574,491L795,432Z" fill="#b8e3bb" stroke="#b8e3bb" stroke-width="1.51"/><path d="M752,1510L523,1701L795,1641Z" fill="#7aa5b6" stroke="#7aa5b6" stroke-width="1.51"/><path d="M608,-288L687,-116L716,-320Z" fill="#d7efd4" stroke="#d7efd4" stroke-width="1.51"/><path d="M517,1537L523,1701L752,1510Z" fill="#7fa9ba" stroke="#7fa9ba" stroke-width="1.51"/><path d="M720,753L631,760L778,844Z" fill="#9dd8c0" stroke="#9dd8c0" stroke-width="1.51"/><path d="M524,943L733,1014L778,844Z" fill="#96d2c5" stroke="#96d2c5" stroke-width="1.51"/><path d="M631,760L524,943L778,844Z" fill="#9dd7c3" stroke="#9dd7c3" stroke-width="1.51"/><path d="M566,-45L646,88L687,-116Z" fill="#d0edcd" stroke="#d0edcd" stroke-width="1.51"/><path d="M604,1191L502,1379L731,1433Z" fill="#86bac1" stroke="#86bac1" stroke-width="1.51"/><path d="M555,1078L604,1191L733,1014Z" fill="#8fcbca" stroke="#8fcbca" stroke-width="1.51"/><path d="M631,760L720,753L766,615Z" fill="#a3dabe" stroke="#a3dabe" stroke-width="1.51"/><path d="M574,491L631,760L766,615Z" fill="#acdebd" stroke="#acdebd" stroke-width="1.51"/><path d="M731,1433L517,1537L752,1510Z" fill="#7eaebb" stroke="#7eaebb" stroke-width="1.51"/><path d="M646,88L679,160L739,109Z" fill="#c8e9c5" stroke="#c8e9c5" stroke-width="1.51"/><path d="M524,943L555,1078L733,1014Z" fill="#95d0c8" stroke="#95d0c8" stroke-width="1.51"/><path d="M502,1379L517,1537L731,1433Z" fill="#84b2be" stroke="#84b2be" stroke-width="1.51"/><path d="M574,491L388,690L631,760Z" fill="#b0e0c0" stroke="#b0e0c0" stroke-width="1.51"/><path d="M608,-288L566,-45L687,-116Z" fill="#d5efd1" stroke="#d5efd1" stroke-width="1.51"/><path d="M482,-70L566,-45L608,-288Z" fill="#d8f0d2" stroke="#d8f0d2" stroke-width="1.51"/><path d="M646,88L644,224L679,160Z" fill="#c8eac5" stroke="#c8eac5" stroke-width="1.51"/><path d="M409,396L553,454L644,224Z" fill="#c3e8c1" stroke="#c3e8c1" stroke-width="1.51"/><path d="M397,243L409,396L644,224Z" fill="#caeac4" stroke="#caeac4" stroke-width="1.51"/><path d="M477,105L644,224L646,88Z" fill="#ccebc7" stroke="#ccebc7" stroke-width="1.51"/><path d="M566,-45L477,105L646,88Z" fill="#d0edcb" stroke="#d0edcb" stroke-width="1.51"/><path d="M452,-310L482,-70L608,-288Z" fill="#ddf2d6" stroke="#ddf2d6" stroke-width="1.51"/><path d="M417,888L524,943L631,760Z" fill="#a1d8c6" stroke="#a1d8c6" stroke-width="1.51"/><path d="M477,105L397,243L644,224Z" fill="#ceecc7" stroke="#ceecc7" stroke-width="1.51"/><path d="M364,611L388,690L574,491Z" fill="#b6e2c0" stroke="#b6e2c0" stroke-width="1.51"/><path d="M424,1264L502,1379L604,1191Z" fill="#8dc0c5" stroke="#8dc0c5" stroke-width="1.51"/><path d="M388,690L417,888L631,760Z" fill="#a8dcc5" stroke="#a8dcc5" stroke-width="1.51"/><path d="M517,1537L458,1611L523,1701Z" fill="#83a8bb" stroke="#83a8bb" stroke-width="1.51"/><path d="M555,1078L424,1264L604,1191Z" fill="#91c7c9" stroke="#91c7c9" stroke-width="1.51"/><path d="M448,1054L424,1264L555,1078Z" fill="#94cbcb" stroke="#94cbcb" stroke-width="1.51"/><path d="M524,943L448,1054L555,1078Z" fill="#99d1cb" stroke="#99d1cb" stroke-width="1.51"/><path d="M482,-70L477,105L566,-45Z" fill="#d4efce" stroke="#d4efce" stroke-width="1.51"/><path d="M553,454L364,611L574,491Z" fill="#bae4bd" stroke="#bae4bd" stroke-width="1.51"/><path d="M523,1701L445,1789L576,1815Z" fill="#7e9caf" stroke="#7e9caf" stroke-width="1.51"/><path d="M409,396L364,611L553,454Z" fill="#bee6bf" stroke="#bee6bf" stroke-width="1.51"/><path d="M452,-310L311,-224L482,-70Z" fill="#dff3d8" stroke="#dff3d8" stroke-width="1.51"/><path d="M357,1340L283,1446L409,1572Z" fill="#8bb5c3" stroke="#8bb5c3" stroke-width="1.51"/><path d="M75,-237L311,-224L452,-310Z" fill="#e5f5de" stroke="#e5f5de" stroke-width="1.51"/><path d="M357,1340L409,1572L502,1379Z" fill="#8ab6c2" stroke="#8ab6c2" stroke-width="1.51"/><path d="M502,1379L409,1572L517,1537Z" fill="#87b0bf" stroke="#87b0bf" stroke-width="1.51"/><path d="M417,888L448,1054L524,943Z" fill="#9ed4ca" stroke="#9ed4ca" stroke-width="1.51"/><path d="M307,32L477,105L482,-70Z" fill="#d6efcf" stroke="#d6efcf" stroke-width="1.51"/><path d="M458,1611L445,1789L523,1701Z" fill="#81a2b6" stroke="#81a2b6" stroke-width="1.51"/><path d="M409,1572L458,1611L517,1537Z" fill="#85abbd" stroke="#85abbd" stroke-width="1.51"/><path d="M424,1264L357,1340L502,1379Z" fill="#8dbdc5" stroke="#8dbdc5" stroke-width="1.51"/><path d="M246,1168L424,1264L448,1054Z" fill="#96cacd" stroke="#96cacd" stroke-width="1.51"/><path d="M236,1721L445,1789L458,1611Z" fill="#83a2b8" stroke="#83a2b8" stroke-width="1.51"/><path d="M409,1572L236,1721L458,1611Z" fill="#85a8bd" stroke="#85a8bd" stroke-width="1.51"/><path d="M302,200L397,243L477,105Z" fill="#d1edca" stroke="#d1edca" stroke-width="1.51"/><path d="M311,-224L307,32L482,-70Z" fill="#dcf2d5" stroke="#dcf2d5" stroke-width="1.51"/><path d="M236,1721L279,1799L445,1789Z" fill="#829eb5" stroke="#829eb5" stroke-width="1.51"/><path d="M307,32L302,200L477,105Z" fill="#d4efce" stroke="#d4efce" stroke-width="1.51"/><path d="M417,888L231,1013L448,1054Z" fill="#9fd4cd" stroke="#9fd4cd" stroke-width="1.51"/><path d="M209,481L364,611L409,396Z" fill="#c0e6c2" stroke="#c0e6c2" stroke-width="1.51"/><path d="M388,690L198,827L417,888Z" fill="#aaddc9" stroke="#aaddc9" stroke-width="1.51"/><path d="M231,1013L246,1168L448,1054Z" fill="#9bd1d2" stroke="#9bd1d2" stroke-width="1.51"/><path d="M186,-44L307,32L311,-224Z" fill="#def2d8" stroke="#def2d8" stroke-width="1.51"/><path d="M302,200L184,343L397,243Z" fill="#d0edca" stroke="#d0edca" stroke-width="1.51"/><path d="M397,243L184,343L409,396Z" fill="#cbebc7" stroke="#cbebc7" stroke-width="1.51"/><path d="M246,1168L357,1340L424,1264Z" fill="#92c3cb" stroke="#92c3cb" stroke-width="1.51"/><path d="M198,827L231,1013L417,888Z" fill="#a6d8ce" stroke="#a6d8ce" stroke-width="1.51"/><path d="M281,1374L283,1446L357,1340Z" fill="#8ebac7" stroke="#8ebac7" stroke-width="1.51"/><path d="M252,649L198,827L388,690Z" fill="#b1e0c8" stroke="#b1e0c8" stroke-width="1.51"/><path d="M184,343L209,481L409,396Z" fill="#c8eac6" stroke="#c8eac6" stroke-width="1.51"/><path d="M283,1446L236,1721L409,1572Z" fill="#88adc1" stroke="#88adc1" stroke-width="1.51"/><path d="M364,611L252,649L388,690Z" fill="#b5e2c5" stroke="#b5e2c5" stroke-width="1.51"/><path d="M246,1168L281,1374L357,1340Z" fill="#92c1ca" stroke="#92c1ca" stroke-width="1.51"/><path d="M209,481L252,649L364,611Z" fill="#bbe5c4" stroke="#bbe5c4" stroke-width="1.51"/><path d="M82,1524L236,1721L283,1446Z" fill="#8bafc4" stroke="#8bafc4" stroke-width="1.51"/><path d="M167,691L198,827L252,649Z" fill="#b3e1ca" stroke="#b3e1ca" stroke-width="1.51"/><path d="M246,1168L164,1162L281,1374Z" fill="#96c6ce" stroke="#96c6ce" stroke-width="1.51"/><path d="M113,148L302,200L307,32Z" fill="#d7efd0" stroke="#d7efd0" stroke-width="1.51"/><path d="M186,-44L113,148L307,32Z" fill="#dbf1d4" stroke="#dbf1d4" stroke-width="1.51"/><path d="M101,-139L186,-44L311,-224Z" fill="#e2f4dc" stroke="#e2f4dc" stroke-width="1.51"/><path d="M75,-237L101,-139L311,-224Z" fill="#e5f5df" stroke="#e5f5df" stroke-width="1.51"/><path d="M116,186L184,343L302,200Z" fill="#d4eecd" stroke="#d4eecd" stroke-width="1.51"/><path d="M113,148L116,186L302,200Z" fill="#d6efd0" stroke="#d6efd0" stroke-width="1.51"/><path d="M82,1524L99,1732L236,1721Z" fill="#8aa8c2" stroke="#8aa8c2" stroke-width="1.51"/><path d="M231,1013L164,1162L246,1168Z" fill="#9ccfd3" stroke="#9ccfd3" stroke-width="1.51"/><path d="M164,1162L32,1420L281,1374Z" fill="#94c1cd" stroke="#94c1cd" stroke-width="1.51"/><path d="M281,1374L32,1420L283,1446Z" fill="#90b9c9" stroke="#90b9c9" stroke-width="1.51"/><path d="M32,1420L82,1524L283,1446Z" fill="#8fb6c9" stroke="#8fb6c9" stroke-width="1.51"/><path d="M236,1721L131,1815L279,1799Z" fill="#849eb6" stroke="#849eb6" stroke-width="1.51"/><path d="M198,827L125,817L231,1013Z" fill="#a9dad0" stroke="#a9dad0" stroke-width="1.51"/><path d="M125,817L35,1018L231,1013Z" fill="#a7d8d3" stroke="#a7d8d3" stroke-width="1.51"/><path d="M209,481L65,579L252,649Z" fill="#bfe6c7" stroke="#bfe6c7" stroke-width="1.51"/><path d="M65,579L167,691L252,649Z" fill="#bae4ca" stroke="#bae4ca" stroke-width="1.51"/><path d="M116,186L92,324L184,343Z" fill="#d2eecd" stroke="#d2eecd" stroke-width="1.51"/><path d="M167,691L125,817L198,827Z" fill="#b0e0cd" stroke="#b0e0cd" stroke-width="1.51"/><path d="M35,1018L164,1162L231,1013Z" fill="#a0d3d6" stroke="#a0d3d6" stroke-width="1.51"/><path d="M99,1732L131,1815L236,1721Z" fill="#86a0ba" stroke="#86a0ba" stroke-width="1.51"/><path d="M184,343L92,324L209,481Z" fill="#ccebca" stroke="#ccebca" stroke-width="1.51"/><path d="M92,324L65,579L209,481Z" fill="#c8eac9" stroke="#c8eac9" stroke-width="1.51"/><path d="M-40,497L65,579L92,324Z" fill="#caeacb" stroke="#caeacb" stroke-width="1.51"/><path d="M-79,1367L32,1420L164,1162Z" fill="#97c2d0" stroke="#97c2d0" stroke-width="1.51"/><path d="M-238,-244L-100,-192L75,-237Z" fill="#edf8e7" stroke="#edf8e7" stroke-width="1.51"/><path d="M82,1524L-5,1584L99,1732Z" fill="#8dacc6" stroke="#8dacc6" stroke-width="1.51"/><path d="M-86,-52L113,148L186,-44Z" fill="#dff3d9" stroke="#dff3d9" stroke-width="1.51"/><path d="M101,-139L-86,-52L186,-44Z" fill="#e3f4dd" stroke="#e3f4dd" stroke-width="1.51"/><path d="M-47,854L35,1018L125,817Z" fill="#addbd4" stroke="#addbd4" stroke-width="1.51"/><path d="M-130,1152L-79,1367L164,1162Z" fill="#9dc9d5" stroke="#9dc9d5" stroke-width="1.51"/><path d="M-23,680L125,817L167,691Z" fill="#b6e2ce" stroke="#b6e2ce" stroke-width="1.51"/><path d="M65,579L-23,680L167,691Z" fill="#bce5cc" stroke="#bce5cc" stroke-width="1.51"/><path d="M35,1018L-130,1152L164,1162Z" fill="#a1d1d8" stroke="#a1d1d8" stroke-width="1.51"/><path d="M-86,-52L-101,115L113,148Z" fill="#e0f3da" stroke="#e0f3da" stroke-width="1.51"/><path d="M-23,680L-47,854L125,817Z" fill="#b4e1d1" stroke="#b4e1d1" stroke-width="1.51"/><path d="M99,1732L-18,1875L131,1815Z" fill="#879db8" stroke="#879db8" stroke-width="1.51"/><path d="M-89,260L92,324L116,186Z" fill="#d7efd1" stroke="#d7efd1" stroke-width="1.51"/><path d="M-47,854L-61,968L35,1018Z" fill="#abdad7" stroke="#abdad7" stroke-width="1.51"/><path d="M-82,351L-40,497L92,324Z" fill="#d0ecce" stroke="#d0ecce" stroke-width="1.51"/><path d="M113,148L-101,115L116,186Z" fill="#dbf1d5" stroke="#dbf1d5" stroke-width="1.51"/><path d="M-101,115L-89,260L116,186Z" fill="#dcf2d5" stroke="#dcf2d5" stroke-width="1.51"/><path d="M75,-237L-100,-192L101,-139Z" fill="#e8f7e2" stroke="#e8f7e2" stroke-width="1.51"/><path d="M-100,-192L-86,-52L101,-139Z" fill="#e7f6e2" stroke="#e7f6e2" stroke-width="1.51"/><path d="M-5,1584L-197,1745L99,1732Z" fill="#8ea8c4" stroke="#8ea8c4" stroke-width="1.51"/><path d="M-197,1745L-18,1875L99,1732Z" fill="#8aa0bd" stroke="#8aa0bd" stroke-width="1.51"/><path d="M-89,260L-82,351L92,324Z" fill="#d5efd1" stroke="#d5efd1" stroke-width="1.51"/><path d="M-140,1600L-197,1745L-5,1584Z" fill="#91adca" stroke="#91adca" stroke-width="1.51"/><path d="M32,1420L-5,1584L82,1524Z" fill="#91b4ca" stroke="#91b4ca" stroke-width="1.51"/><path d="M-40,497L-23,680L65,579Z" fill="#c2e7cc" stroke="#c2e7cc" stroke-width="1.51"/><path d="M-79,1367L-140,1600L-5,1584Z" fill="#94b5cd" stroke="#94b5cd" stroke-width="1.51"/><path d="M-79,1367L-5,1584L32,1420Z" fill="#94b8cd" stroke="#94b8cd" stroke-width="1.51"/><path d="M-61,968L-130,1152L35,1018Z" fill="#a7d6da" stroke="#a7d6da" stroke-width="1.51"/><path d="M-222,1496L-140,1600L-79,1367Z" fill="#96b8d0" stroke="#96b8d0" stroke-width="1.51"/><path d="M-130,1152L-190,1338L-79,1367Z" fill="#9dc6d6" stroke="#9dc6d6" stroke-width="1.51"/><path d="M-82,351L-141,443L-40,497Z" fill="#d0edcf" stroke="#d0edcf" stroke-width="1.51"/><path d="M-201,843L-47,854L-23,680Z" fill="#b6e2d4" stroke="#b6e2d4" stroke-width="1.51"/><path d="M-40,497L-289,629L-23,680Z" fill="#c5e8d0" stroke="#c5e8d0" stroke-width="1.51"/><path d="M-197,1745L-200,1865L-18,1875Z" fill="#8c9ebb" stroke="#8c9ebb" stroke-width="1.51"/><path d="M-141,443L-289,629L-40,497Z" fill="#ccebce" stroke="#ccebce" stroke-width="1.51"/><path d="M-265,774L-201,843L-23,680Z" fill="#bae4d5" stroke="#bae4d5" stroke-width="1.51"/><path d="M-289,629L-265,774L-23,680Z" fill="#c0e6d4" stroke="#c0e6d4" stroke-width="1.51"/><path d="M-101,115L-180,172L-89,260Z" fill="#dff3d8" stroke="#dff3d8" stroke-width="1.51"/><path d="M-224,1120L-130,1152L-61,968Z" fill="#a7d5dd" stroke="#a7d5dd" stroke-width="1.51"/><path d="M-201,843L-61,968L-47,854Z" fill="#b1ded7" stroke="#b1ded7" stroke-width="1.51"/><path d="M-255,49L-101,115L-86,-52Z" fill="#e4f5de" stroke="#e4f5de" stroke-width="1.51"/><path d="M-100,-192L-242,-114L-86,-52Z" fill="#ebf7e4" stroke="#ebf7e4" stroke-width="1.51"/><path d="M-190,1338L-222,1496L-79,1367Z" fill="#9abed2" stroke="#9abed2" stroke-width="1.51"/><path d="M-201,843L-290,961L-61,968Z" fill="#b1dddb" stroke="#b1dddb" stroke-width="1.51"/><path d="M-290,961L-224,1120L-61,968Z" fill="#acd9dd" stroke="#acd9dd" stroke-width="1.51"/><path d="M-89,260L-180,172L-82,351Z" fill="#dbf1d5" stroke="#dbf1d5" stroke-width="1.51"/><path d="M-180,172L-141,443L-82,351Z" fill="#d8f0d3" stroke="#d8f0d3" stroke-width="1.51"/><path d="M-242,-114L-255,49L-86,-52Z" fill="#e9f7e2" stroke="#e9f7e2" stroke-width="1.51"/><path d="M-224,1120L-190,1338L-130,1152Z" fill="#a3cdda" stroke="#a3cdda" stroke-width="1.51"/><path d="M-255,49L-180,172L-101,115Z" fill="#e3f4dc" stroke="#e3f4dc" stroke-width="1.51"/><path d="M-238,-244L-242,-114L-100,-192Z" fill="#eff9e8" stroke="#eff9e8" stroke-width="1.51"/><path d="M-180,172L-289,629L-141,443Z" fill="#d4eed3" stroke="#d4eed3" stroke-width="1.51"/><path d="M-222,1496L-197,1745L-140,1600Z" fill="#94afcd" stroke="#94afcd" stroke-width="1.51"/><path d="M-255,49L-289,629L-180,172Z" fill="#ddf2d8" stroke="#ddf2d8" stroke-width="1.51"/><path d="M-224,1120L-222,1496L-190,1338Z" fill="#9ec5d6" stroke="#9ec5d6" stroke-width="1.51"/><path d="M-222,1496L-290,961L-200,1865Z" fill="#9abcd3" stroke="#9abcd3" stroke-width="1.51"/><path d="M-222,1496L-200,1865L-197,1745Z" fill="#92a9c7" stroke="#92a9c7" stroke-width="1.51"/><path d="M-224,1120L-290,961L-222,1496Z" fill="#a5cedc" stroke="#a5cedc" stroke-width="1.51"/><path d="M-265,774L-290,961L-201,843Z" fill="#b7e1da" stroke="#b7e1da" stroke-width="1.51"/><path d="M-255,49L-242,-114L-238,-244Z" fill="#edf8e6" stroke="#edf8e6" stroke-width="1.51"/><path d="M-289,629L-290,961L-265,774Z" fill="#bce5d9" stroke="#bce5d9" stroke-width="1.51"/></svg>