<svg xmlns="http://www.w3.org/2000/svg" width="2600" height="1600"><path d="M1167,-270L1400,-231L1711,-230Z" fill="#b47f82" stroke="#b47f82" stroke-width="1.51"/><path d="M892,1829L582,1855L1918,1821Z" fill="#8c8ba5" stroke="#8c8ba5" stroke-width="1.51"/><path d="M1482,1778L892,1829L1918,1821Z" fill="#8292b4" stroke="#8292b4" stroke-width="1.51"/><path d="M2265,1755L2093,1798L2465,1766Z" fill="#2b6aa2" stroke="#2b6aa2" stroke-width="1.51"/><path d="M1167,-270L1711,-230L2502,-246Z" fill="#9b727b" stroke="#9b727b" stroke-width="1.51"/><path d="M1711,-230L1855,-217L2502,-246Z" fill="#8b6675" stroke="#8b6675" stroke-width="1.51"/><path d="M1855,-217L1978,-199L2502,-246Z" fill="#856072" stroke="#856072" stroke-width="1.51"/><path d="M2465,1766L2093,1798L2682,1809Z" fill="#225e99" stroke="#225e99" stroke-width="1.51"/><path d="M2093,1798L1918,1821L2682,1809Z" fill="#2c689c" stroke="#2c689c" stroke-width="1.51"/><path d="M2502,-246L2651,-110L2770,-127Z" fill="#713c5b" stroke="#713c5b" stroke-width="1.51"/><path d="M2653,-41L2722,55L2770,-127Z" fill="#803e5a" stroke="#803e5a" stroke-width="1.51"/><path d="M2719,1367L2758,1404L2780,1070Z" fill="#4e7ba9" stroke="#4e7ba9" stroke-width="1.51"/><path d="M2653,1222L2719,1367L2780,1070Z" fill="#5a85b1" stroke="#5a85b1" stroke-width="1.51"/><path d="M2714,997L2780,1070L2797,783Z" fill="#7e90b4" stroke="#7e90b4" stroke-width="1.51"/><path d="M2688,928L2714,997L2797,783Z" fill="#8495b9" stroke="#8495b9" stroke-width="1.51"/><path d="M2797,528L2743,609L2797,783Z" fill="#8f8ba4" stroke="#8f8ba4" stroke-width="1.51"/><path d="M2621,376L2797,528L2826,353Z" fill="#947889" stroke="#947889" stroke-width="1.51"/><path d="M2797,528L2797,783L2826,353Z" fill="#8e8296" stroke="#8e8296" stroke-width="1.51"/><path d="M2722,55L2541,167L2827,121Z" fill="#8b5269" stroke="#8b5269" stroke-width="1.51"/><path d="M2541,167L2621,376L2827,121Z" fill="#936479" stroke="#936479" stroke-width="1.51"/><path d="M2621,376L2826,353L2827,121Z" fill="#8e6475" stroke="#8e6475" stroke-width="1.51"/><path d="M2770,-127L2722,55L2827,121Z" fill="#7f4057" stroke="#7f4057" stroke-width="1.51"/><path d="M2758,1404L2670,1588L2831,1553Z" fill="#26639a" stroke="#26639a" stroke-width="1.51"/><path d="M2670,1588L2736,1733L2831,1553Z" fill="#1c5896" stroke="#1c5896" stroke-width="1.51"/><path d="M2780,1070L2758,1404L2831,1553Z" fill="#4171a0" stroke="#4171a0" stroke-width="1.51"/><path d="M2797,783L2780,1070L2831,1553Z" fill="#6383aa" stroke="#6383aa" stroke-width="1.51"/><path d="M2826,353L2797,783L2831,1553Z" fill="#7f8dae" stroke="#7f8dae" stroke-width="1.51"/><path d="M2631,1179L2653,1222L2780,1070Z" fill="#668cb7" stroke="#668cb7" stroke-width="1.51"/><path d="M2621,376L2683,561L2797,528Z" fill="#978499" stroke="#978499" stroke-width="1.51"/><path d="M2683,561L2743,609L2797,528Z" fill="#9389a0" stroke="#9389a0" stroke-width="1.51"/><path d="M2743,609L2596,826L2797,783Z" fill="#9098b7" stroke="#9098b7" stroke-width="1.51"/><path d="M2596,826L2688,928L2797,783Z" fill="#8b9bbf" stroke="#8b9bbf" stroke-width="1.51"/><path d="M1978,-199L2364,-185L2502,-246Z" fill="#7a546d" stroke="#7a546d" stroke-width="1.51"/><path d="M2645,1390L2670,1588L2758,1404Z" fill="#2d6ea5" stroke="#2d6ea5" stroke-width="1.51"/><path d="M2651,-110L2653,-41L2770,-127Z" fill="#7a3c59" stroke="#7a3c59" stroke-width="1.51"/><path d="M2714,997L2631,1179L2780,1070Z" fill="#718fb7" stroke="#718fb7" stroke-width="1.51"/><path d="M2515,656L2596,826L2743,609Z" fill="#989ebe" stroke="#989ebe" stroke-width="1.51"/><path d="M2683,561L2515,656L2743,609Z" fill="#9996b1" stroke="#9996b1" stroke-width="1.51"/><path d="M2719,1367L2645,1390L2758,1404Z" fill="#3b74a8" stroke="#3b74a8" stroke-width="1.51"/><path d="M2653,1222L2645,1390L2719,1367Z" fill="#497eb0" stroke="#497eb0" stroke-width="1.51"/><path d="M2621,376L2549,446L2683,561Z" fill="#9d899f" stroke="#9d899f" stroke-width="1.51"/><path d="M2670,1588L2682,1809L2736,1733Z" fill="#175291" stroke="#175291" stroke-width="1.51"/><path d="M2670,1588L2465,1766L2682,1809Z" fill="#1b599a" stroke="#1b599a" stroke-width="1.51"/><path d="M2436,1037L2631,1179L2714,997Z" fill="#799bc6" stroke="#799bc6" stroke-width="1.51"/><path d="M2653,-41L2521,35L2722,55Z" fill="#8a4c67" stroke="#8a4c67" stroke-width="1.51"/><path d="M2521,35L2541,167L2722,55Z" fill="#915872" stroke="#915872" stroke-width="1.51"/><path d="M2688,928L2436,1037L2714,997Z" fill="#839ec7" stroke="#839ec7" stroke-width="1.51"/><path d="M2645,1390L2499,1402L2670,1588Z" fill="#3176b0" stroke="#3176b0" stroke-width="1.51"/><path d="M2435,1668L2465,1766L2670,1588Z" fill="#2266aa" stroke="#2266aa" stroke-width="1.51"/><path d="M2596,826L2436,1037L2688,928Z" fill="#8ba4cd" stroke="#8ba4cd" stroke-width="1.51"/><path d="M2499,1402L2645,1390L2653,1222Z" fill="#4a83b8" stroke="#4a83b8" stroke-width="1.51"/><path d="M2549,446L2515,656L2683,561Z" fill="#9e97b2" stroke="#9e97b2" stroke-width="1.51"/><path d="M2541,167L2453,326L2621,376Z" fill="#9f798f" stroke="#9f798f" stroke-width="1.51"/><path d="M2436,1037L2427,1096L2631,1179Z" fill="#78a1cc" stroke="#78a1cc" stroke-width="1.51"/><path d="M2499,1402L2435,1668L2670,1588Z" fill="#2d72b2" stroke="#2d72b2" stroke-width="1.51"/><path d="M2651,-110L2521,35L2653,-41Z" fill="#884865" stroke="#884865" stroke-width="1.51"/><path d="M2631,1179L2421,1222L2653,1222Z" fill="#6594c4" stroke="#6594c4" stroke-width="1.51"/><path d="M2421,1222L2499,1402L2653,1222Z" fill="#5890c3" stroke="#5890c3" stroke-width="1.51"/><path d="M2502,-246L2521,35L2651,-110Z" fill="#824767" stroke="#824767" stroke-width="1.51"/><path d="M1978,-199L2045,-171L2364,-185Z" fill="#8b6173" stroke="#8b6173" stroke-width="1.51"/><path d="M2444,221L2453,326L2541,167Z" fill="#a0768a" stroke="#a0768a" stroke-width="1.51"/><path d="M2427,1096L2421,1222L2631,1179Z" fill="#6e9dca" stroke="#6e9dca" stroke-width="1.51"/><path d="M2502,-246L2364,-185L2521,35Z" fill="#814d6a" stroke="#814d6a" stroke-width="1.51"/><path d="M2378,847L2436,1037L2596,826Z" fill="#92aed3" stroke="#92aed3" stroke-width="1.51"/><path d="M2463,395L2549,446L2621,376Z" fill="#a2899f" stroke="#a2899f" stroke-width="1.51"/><path d="M2453,326L2463,395L2621,376Z" fill="#a3879a" stroke="#a3879a" stroke-width="1.51"/><path d="M2364,-185L2342,-44L2521,35Z" fill="#91556e" stroke="#91556e" stroke-width="1.51"/><path d="M2370,590L2515,656L2549,446Z" fill="#a4a2ba" stroke="#a4a2ba" stroke-width="1.51"/><path d="M2515,656L2378,847L2596,826Z" fill="#9caed1" stroke="#9caed1" stroke-width="1.51"/><path d="M2274,1585L2435,1668L2499,1402Z" fill="#347bb7" stroke="#347bb7" stroke-width="1.51"/><path d="M2521,35L2444,221L2541,167Z" fill="#9a677d" stroke="#9a677d" stroke-width="1.51"/><path d="M2463,395L2370,590L2549,446Z" fill="#a598ad" stroke="#a598ad" stroke-width="1.51"/><path d="M2370,590L2378,847L2515,656Z" fill="#a2afcc" stroke="#a2afcc" stroke-width="1.51"/><path d="M2342,-44L2444,221L2521,35Z" fill="#996479" stroke="#996479" stroke-width="1.51"/><path d="M2237,1406L2274,1585L2499,1402Z" fill="#3d8abf" stroke="#3d8abf" stroke-width="1.51"/><path d="M2342,-44L2220,117L2444,221Z" fill="#9f6e7f" stroke="#9f6e7f" stroke-width="1.51"/><path d="M2421,1222L2237,1406L2499,1402Z" fill="#5294c4" stroke="#5294c4" stroke-width="1.51"/><path d="M2258,910L2365,1063L2378,847Z" fill="#94b6d7" stroke="#94b6d7" stroke-width="1.51"/><path d="M2225,1301L2237,1406L2421,1222Z" fill="#5d9eca" stroke="#5d9eca" stroke-width="1.51"/><path d="M2378,847L2365,1063L2436,1037Z" fill="#8eb1d5" stroke="#8eb1d5" stroke-width="1.51"/><path d="M2251,393L2370,590L2463,395Z" fill="#aa9dad" stroke="#aa9dad" stroke-width="1.51"/><path d="M2435,1668L2265,1755L2465,1766Z" fill="#2868a5" stroke="#2868a5" stroke-width="1.51"/><path d="M2370,590L2219,804L2378,847Z" fill="#a4bad4" stroke="#a4bad4" stroke-width="1.51"/><path d="M2453,326L2251,393L2463,395Z" fill="#a9919e" stroke="#a9919e" stroke-width="1.51"/><path d="M2444,221L2214,295L2453,326Z" fill="#a68593" stroke="#a68593" stroke-width="1.51"/><path d="M2214,295L2251,393L2453,326Z" fill="#ab939d" stroke="#ab939d" stroke-width="1.51"/><path d="M2365,1063L2421,1222L2427,1096Z" fill="#78a6cf" stroke="#78a6cf" stroke-width="1.51"/><path d="M2365,1063L2427,1096L2436,1037Z" fill="#82aad2" stroke="#82aad2" stroke-width="1.51"/><path d="M2220,117L2214,295L2444,221Z" fill="#a7818d" stroke="#a7818d" stroke-width="1.51"/><path d="M2274,1585L2265,1755L2435,1668Z" fill="#2f75b2" stroke="#2f75b2" stroke-width="1.51"/><path d="M2365,1063L2187,1251L2421,1222Z" fill="#73a9d0" stroke="#73a9d0" stroke-width="1.51"/><path d="M2187,1251L2225,1301L2421,1222Z" fill="#67a6cd" stroke="#67a6cd" stroke-width="1.51"/><path d="M62,-272L1010,-227L1167,-270Z" fill="#b15f55" stroke="#b15f55" stroke-width="1.51"/><path d="M2190,8L2220,117L2342,-44Z" fill="#9f6c7b" stroke="#9f6c7b" stroke-width="1.51"/><path d="M2147,1088L2187,1251L2365,1063Z" fill="#7fb3d5" stroke="#7fb3d5" stroke-width="1.51"/><path d="M2078,618L2219,804L2370,590Z" fill="#acbdd0" stroke="#acbdd0" stroke-width="1.51"/><path d="M2251,393L2177,439L2370,590Z" fill="#aea7b3" stroke="#aea7b3" stroke-width="1.51"/><path d="M2219,804L2258,910L2378,847Z" fill="#9ebedb" stroke="#9ebedb" stroke-width="1.51"/><path d="M2190,8L2342,-44L2364,-185Z" fill="#945d71" stroke="#945d71" stroke-width="1.51"/><path d="M2258,910L2174,941L2365,1063Z" fill="#94bbd9" stroke="#94bbd9" stroke-width="1.51"/><path d="M2177,439L2078,618L2370,590Z" fill="#b0b5c1" stroke="#b0b5c1" stroke-width="1.51"/><path d="M2045,-171L2190,8L2364,-185Z" fill="#926173" stroke="#926173" stroke-width="1.51"/><path d="M2174,941L2147,1088L2365,1063Z" fill="#8fbbda" stroke="#8fbbda" stroke-width="1.51"/><path d="M2237,1406L2166,1492L2274,1585Z" fill="#428ec1" stroke="#428ec1" stroke-width="1.51"/><path d="M75,1851L37,1856L582,1855Z" fill="#7c3f55" stroke="#7c3f55" stroke-width="1.51"/><path d="M2219,804L2165,857L2258,910Z" fill="#a2c3dd" stroke="#a2c3dd" stroke-width="1.51"/><path d="M2184,1583L2093,1798L2265,1755Z" fill="#3b79b0" stroke="#3b79b0" stroke-width="1.51"/><path d="M2166,1492L2184,1583L2274,1585Z" fill="#418abf" stroke="#418abf" stroke-width="1.51"/><path d="M2184,1583L2265,1755L2274,1585Z" fill="#367eb9" stroke="#367eb9" stroke-width="1.51"/><path d="M2070,206L2214,295L2220,117Z" fill="#af8990" stroke="#af8990" stroke-width="1.51"/><path d="M2165,857L2174,941L2258,910Z" fill="#a0c3de" stroke="#a0c3de" stroke-width="1.51"/><path d="M2214,295L2177,439L2251,393Z" fill="#b19fa5" stroke="#b19fa5" stroke-width="1.51"/><path d="M2035,537L2078,618L2177,439Z" fill="#bcbcc3" stroke="#bcbcc3" stroke-width="1.51"/><path d="M2070,206L2072,251L2214,295Z" fill="#b69499" stroke="#b69499" stroke-width="1.51"/><path d="M2225,1301L1998,1356L2237,1406Z" fill="#62a4cd" stroke="#62a4cd" stroke-width="1.51"/><path d="M1998,1356L2166,1492L2237,1406Z" fill="#589ec9" stroke="#589ec9" stroke-width="1.51"/><path d="M2072,251L2177,439L2214,295Z" fill="#b69da1" stroke="#b69da1" stroke-width="1.51"/><path d="M1989,779L2165,857L2219,804Z" fill="#b0cde2" stroke="#b0cde2" stroke-width="1.51"/><path d="M2078,618L1989,779L2219,804Z" fill="#b7ccdc" stroke="#b7ccdc" stroke-width="1.51"/><path d="M2187,1251L1998,1356L2225,1301Z" fill="#6dabd1" stroke="#6dabd1" stroke-width="1.51"/><path d="M2190,8L2070,206L2220,117Z" fill="#ab7e86" stroke="#ab7e86" stroke-width="1.51"/><path d="M1964,1667L2093,1798L2184,1583Z" fill="#4c84ba" stroke="#4c84ba" stroke-width="1.51"/><path d="M1986,35L2070,206L2190,8Z" fill="#b18087" stroke="#b18087" stroke-width="1.51"/><path d="M1562,1759L1482,1778L1918,1821Z" fill="#758fb5" stroke="#758fb5" stroke-width="1.51"/><path d="M1997,1070L2147,1088L2174,941Z" fill="#9cc5df" stroke="#9cc5df" stroke-width="1.51"/><path d="M2147,1088L1997,1070L2187,1251Z" fill="#8cbdda" stroke="#8cbdda" stroke-width="1.51"/><path d="M1997,1070L1998,1356L2187,1251Z" fill="#83bad9" stroke="#83bad9" stroke-width="1.51"/><path d="M2045,-171L1986,35L2190,8Z" fill="#aa717b" stroke="#aa717b" stroke-width="1.51"/><path d="M2072,251L2035,537L2177,439Z" fill="#bdadaf" stroke="#bdadaf" stroke-width="1.51"/><path d="M2166,1492L1964,1667L2184,1583Z" fill="#4f8fc2" stroke="#4f8fc2" stroke-width="1.51"/><path d="M1901,1540L1964,1667L2166,1492Z" fill="#5c97c7" stroke="#5c97c7" stroke-width="1.51"/><path d="M1989,779L1916,974L2165,857Z" fill="#b6d3e6" stroke="#b6d3e6" stroke-width="1.51"/><path d="M2165,857L1916,974L2174,941Z" fill="#aacbe2" stroke="#aacbe2" stroke-width="1.51"/><path d="M1916,974L1997,1070L2174,941Z" fill="#a9cde3" stroke="#a9cde3" stroke-width="1.51"/><path d="M1998,1356L1901,1540L2166,1492Z" fill="#61a2cc" stroke="#61a2cc" stroke-width="1.51"/><path d="M1983,234L2035,537L2072,251Z" fill="#c2a9a7" stroke="#c2a9a7" stroke-width="1.51"/><path d="M62,-272L497,-175L1010,-227Z" fill="#ae4b43" stroke="#ae4b43" stroke-width="1.51"/><path d="M1983,234L1831,289L2035,537Z" fill="#cbb1ac" stroke="#cbb1ac" stroke-width="1.51"/><path d="M1986,35L1922,174L2070,206Z" fill="#bd8e8f" stroke="#bd8e8f" stroke-width="1.51"/><path d="M1971,575L1989,779L2078,618Z" fill="#c2cdd7" stroke="#c2cdd7" stroke-width="1.51"/><path d="M1964,1667L1918,1821L2093,1798Z" fill="#5180af" stroke="#5180af" stroke-width="1.51"/><path d="M1997,1070L1844,1078L1998,1356Z" fill="#9ac8df" stroke="#9ac8df" stroke-width="1.51"/><path d="M1831,289L1971,575L2035,537Z" fill="#cbc0be" stroke="#cbc0be" stroke-width="1.51"/><path d="M1978,-199L1986,35L2045,-171Z" fill="#a5717a" stroke="#a5717a" stroke-width="1.51"/><path d="M1922,174L1983,234L2070,206Z" fill="#c09797" stroke="#c09797" stroke-width="1.51"/><path d="M2035,537L1971,575L2078,618Z" fill="#c2c7cd" stroke="#c2c7cd" stroke-width="1.51"/><path d="M2070,206L1983,234L2072,251Z" fill="#bd9799" stroke="#bd9799" stroke-width="1.51"/><path d="M1831,289L1794,537L1971,575Z" fill="#d3c4c1" stroke="#d3c4c1" stroke-width="1.51"/><path d="M1978,-199L1822,5L1986,35Z" fill="#b77b80" stroke="#b77b80" stroke-width="1.51"/><path d="M1844,1078L1802,1371L1998,1356Z" fill="#91c3dd" stroke="#91c3dd" stroke-width="1.51"/><path d="M1867,1781L1562,1759L1918,1821Z" fill="#6889b1" stroke="#6889b1" stroke-width="1.51"/><path d="M1867,1781L1918,1821L1964,1667Z" fill="#5b86b3" stroke="#5b86b3" stroke-width="1.51"/><path d="M1794,537L1749,783L1971,575Z" fill="#d3d8da" stroke="#d3d8da" stroke-width="1.51"/><path d="M1855,-217L1822,5L1978,-199Z" fill="#aa767d" stroke="#aa767d" stroke-width="1.51"/><path d="M1775,899L1916,974L1989,779Z" fill="#c1dcea" stroke="#c1dcea" stroke-width="1.51"/><path d="M1971,575L1749,783L1989,779Z" fill="#cbd9e1" stroke="#cbd9e1" stroke-width="1.51"/><path d="M1916,974L1844,1078L1997,1070Z" fill="#b0d3e6" stroke="#b0d3e6" stroke-width="1.51"/><path d="M1799,1469L1901,1540L1998,1356Z" fill="#71acd1" stroke="#71acd1" stroke-width="1.51"/><path d="M1802,1371L1799,1469L1998,1356Z" fill="#7db4d5" stroke="#7db4d5" stroke-width="1.51"/><path d="M1822,5L1922,174L1986,35Z" fill="#c08c8c" stroke="#c08c8c" stroke-width="1.51"/><path d="M1749,783L1775,899L1989,779Z" fill="#cde1ed" stroke="#cde1ed" stroke-width="1.51"/><path d="M1739,572L1749,783L1794,537Z" fill="#dadcdd" stroke="#dadcdd" stroke-width="1.51"/><path d="M1922,174L1831,289L1983,234Z" fill="#c9a29e" stroke="#c9a29e" stroke-width="1.51"/><path d="M1901,1540L1788,1654L1964,1667Z" fill="#699ac8" stroke="#699ac8" stroke-width="1.51"/><path d="M1788,1654L1867,1781L1964,1667Z" fill="#6490be" stroke="#6490be" stroke-width="1.51"/><path d="M1822,5L1828,189L1922,174Z" fill="#c89492" stroke="#c89492" stroke-width="1.51"/><path d="M1828,189L1831,289L1922,174Z" fill="#cca29d" stroke="#cca29d" stroke-width="1.51"/><path d="M1669,391L1794,537L1831,289Z" fill="#dbc2ba" stroke="#dbc2ba" stroke-width="1.51"/><path d="M1775,899L1844,1078L1916,974Z" fill="#bddaea" stroke="#bddaea" stroke-width="1.51"/><path d="M1604,1117L1802,1371L1844,1078Z" fill="#aad1e4" stroke="#aad1e4" stroke-width="1.51"/><path d="M1711,-230L1822,5L1855,-217Z" fill="#af797f" stroke="#af797f" stroke-width="1.51"/><path d="M1799,1469L1788,1654L1901,1540Z" fill="#73a4ce" stroke="#73a4ce" stroke-width="1.51"/><path d="M1693,1574L1788,1654L1799,1469Z" fill="#7aa6cf" stroke="#7aa6cf" stroke-width="1.51"/><path d="M1604,1117L1602,1326L1802,1371Z" fill="#a6cde3" stroke="#a6cde3" stroke-width="1.51"/><path d="M1788,1654L1562,1759L1867,1781Z" fill="#7092bd" stroke="#7092bd" stroke-width="1.51"/><path d="M1711,-230L1592,-10L1822,5Z" fill="#c48384" stroke="#c48384" stroke-width="1.51"/><path d="M1822,5L1592,-10L1828,189Z" fill="#cd928f" stroke="#cd928f" stroke-width="1.51"/><path d="M1775,899L1703,895L1844,1078Z" fill="#c6dfed" stroke="#c6dfed" stroke-width="1.51"/><path d="M1592,-10L1557,173L1828,189Z" fill="#d89d97" stroke="#d89d97" stroke-width="1.51"/><path d="M1703,895L1604,1117L1844,1078Z" fill="#c5deed" stroke="#c5deed" stroke-width="1.51"/><path d="M1557,173L1669,391L1828,189Z" fill="#ddafa6" stroke="#ddafa6" stroke-width="1.51"/><path d="M1828,189L1669,391L1831,289Z" fill="#d7b0a9" stroke="#d7b0a9" stroke-width="1.51"/><path d="M1252,1722L892,1829L1482,1778Z" fill="#8f96b5" stroke="#8f96b5" stroke-width="1.51"/><path d="M1557,173L1622,383L1669,391Z" fill="#e6bdb1" stroke="#e6bdb1" stroke-width="1.51"/><path d="M1739,572L1598,621L1749,783Z" fill="#e0e1e1" stroke="#e0e1e1" stroke-width="1.51"/><path d="M1749,783L1691,820L1775,899Z" fill="#d5e6f0" stroke="#d5e6f0" stroke-width="1.51"/><path d="M1669,391L1739,572L1794,537Z" fill="#decfca" stroke="#decfca" stroke-width="1.51"/><path d="M1602,1326L1799,1469L1802,1371Z" fill="#8cbcda" stroke="#8cbcda" stroke-width="1.51"/><path d="M1691,820L1703,895L1775,899Z" fill="#d3e5f0" stroke="#d3e5f0" stroke-width="1.51"/><path d="M1537,1420L1693,1574L1799,1469Z" fill="#87b3d5" stroke="#87b3d5" stroke-width="1.51"/><path d="M1602,1326L1537,1420L1799,1469Z" fill="#93bedb" stroke="#93bedb" stroke-width="1.51"/><path d="M1693,1574L1562,1759L1788,1654Z" fill="#7d9fcb" stroke="#7d9fcb" stroke-width="1.51"/><path d="M1537,1420L1548,1521L1693,1574Z" fill="#8fb5d6" stroke="#8fb5d6" stroke-width="1.51"/><path d="M1557,173L1520,280L1622,383Z" fill="#e7b8ac" stroke="#e7b8ac" stroke-width="1.51"/><path d="M1669,391L1598,621L1739,572Z" fill="#e4d6d0" stroke="#e4d6d0" stroke-width="1.51"/><path d="M1598,621L1691,820L1749,783Z" fill="#dfe7eb" stroke="#dfe7eb" stroke-width="1.51"/><path d="M1622,383L1598,621L1669,391Z" fill="#e7d0c7" stroke="#e7d0c7" stroke-width="1.51"/><path d="M1407,903L1604,1117L1703,895Z" fill="#d8e8f1" stroke="#d8e8f1" stroke-width="1.51"/><path d="M1400,-231L1592,-10L1711,-230Z" fill="#bf8284" stroke="#bf8284" stroke-width="1.51"/><path d="M1482,428L1598,621L1622,383Z" fill="#ecd4ca" stroke="#ecd4ca" stroke-width="1.51"/><path d="M1598,621L1444,831L1691,820Z" fill="#e7ecef" stroke="#e7ecef" stroke-width="1.51"/><path d="M1548,1521L1562,1759L1693,1574Z" fill="#87a8d0" stroke="#87a8d0" stroke-width="1.51"/><path d="M1691,820L1444,831L1703,895Z" fill="#e0ecf3" stroke="#e0ecf3" stroke-width="1.51"/><path d="M1444,831L1407,903L1703,895Z" fill="#e4edf4" stroke="#e4edf4" stroke-width="1.51"/><path d="M1125,1724L892,1829L1252,1722Z" fill="#9494b0" stroke="#9494b0" stroke-width="1.51"/><path d="M1464,635L1444,831L1598,621Z" fill="#eeeae9" stroke="#eeeae9" stroke-width="1.51"/><path d="M1480,1142L1602,1326L1604,1117Z" fill="#bad9e9" stroke="#bad9e9" stroke-width="1.51"/><path d="M1548,1521L1431,1673L1562,1759Z" fill="#8ba6d0" stroke="#8ba6d0" stroke-width="1.51"/><path d="M1400,-231L1411,20L1592,-10Z" fill="#d48b88" stroke="#d48b88" stroke-width="1.51"/><path d="M1408,59L1557,173L1592,-10Z" fill="#dd9c94" stroke="#dd9c94" stroke-width="1.51"/><path d="M1482,428L1464,635L1598,621Z" fill="#efe0d8" stroke="#efe0d8" stroke-width="1.51"/><path d="M1407,903L1480,1142L1604,1117Z" fill="#d3e5f0" stroke="#d3e5f0" stroke-width="1.51"/><path d="M1520,280L1482,428L1622,383Z" fill="#ecc6b8" stroke="#ecc6b8" stroke-width="1.51"/><path d="M1411,20L1408,59L1592,-10Z" fill="#dd9790" stroke="#dd9790" stroke-width="1.51"/><path d="M1468,1376L1537,1420L1602,1326Z" fill="#a1c5df" stroke="#a1c5df" stroke-width="1.51"/><path d="M1480,1142L1468,1376L1602,1326Z" fill="#b0d2e5" stroke="#b0d2e5" stroke-width="1.51"/><path d="M784,1824L582,1855L892,1829Z" fill="#8e7282" stroke="#8e7282" stroke-width="1.51"/><path d="M1431,1673L1482,1778L1562,1759Z" fill="#859ac1" stroke="#859ac1" stroke-width="1.51"/><path d="M1408,59L1520,280L1557,173Z" fill="#e5a99e" stroke="#e5a99e" stroke-width="1.51"/><path d="M1408,59L1283,185L1520,280Z" fill="#eaaca0" stroke="#eaaca0" stroke-width="1.51"/><path d="M1468,1376L1274,1614L1548,1521Z" fill="#99b9d9" stroke="#99b9d9" stroke-width="1.51"/><path d="M1274,1614L1431,1673L1548,1521Z" fill="#94aed3" stroke="#94aed3" stroke-width="1.51"/><path d="M1537,1420L1468,1376L1548,1521Z" fill="#98bedb" stroke="#98bedb" stroke-width="1.51"/><path d="M1350,763L1444,831L1464,635Z" fill="#f1f0ef" stroke="#f1f0ef" stroke-width="1.51"/><path d="M1234,1539L1274,1614L1468,1376Z" fill="#a0bcd9" stroke="#a0bcd9" stroke-width="1.51"/><path d="M1302,1156L1468,1376L1480,1142Z" fill="#bfdbe9" stroke="#bfdbe9" stroke-width="1.51"/><path d="M1400,-231L1379,17L1411,20Z" fill="#da8d89" stroke="#da8d89" stroke-width="1.51"/><path d="M1407,903L1302,1156L1480,1142Z" fill="#d7e7f1" stroke="#d7e7f1" stroke-width="1.51"/><path d="M1267,450L1464,635L1482,428Z" fill="#f5dcd0" stroke="#f5dcd0" stroke-width="1.51"/><path d="M1249,299L1482,428L1520,280Z" fill="#f1c5b5" stroke="#f1c5b5" stroke-width="1.51"/><path d="M1283,185L1249,299L1520,280Z" fill="#f1baab" stroke="#f1baab" stroke-width="1.51"/><path d="M1277,-182L1379,17L1400,-231Z" fill="#ce8987" stroke="#ce8987" stroke-width="1.51"/><path d="M1211,1508L1234,1539L1468,1376Z" fill="#a3c0dc" stroke="#a3c0dc" stroke-width="1.51"/><path d="M1302,1156L1237,1274L1468,1376Z" fill="#bed8e8" stroke="#bed8e8" stroke-width="1.51"/><path d="M1249,299L1267,450L1482,428Z" fill="#f8cfbe" stroke="#f8cfbe" stroke-width="1.51"/><path d="M1431,1673L1252,1722L1482,1778Z" fill="#8c9fc4" stroke="#8c9fc4" stroke-width="1.51"/><path d="M1267,450L1224,642L1464,635Z" fill="#fae7dd" stroke="#fae7dd" stroke-width="1.51"/><path d="M1316,884L1302,1156L1407,903Z" fill="#e5eef4" stroke="#e5eef4" stroke-width="1.51"/><path d="M1237,1274L1211,1508L1468,1376Z" fill="#adcbe1" stroke="#adcbe1" stroke-width="1.51"/><path d="M1224,642L1350,763L1464,635Z" fill="#f6ede9" stroke="#f6ede9" stroke-width="1.51"/><path d="M1316,884L1407,903L1444,831Z" fill="#ebf1f5" stroke="#ebf1f5" stroke-width="1.51"/><path d="M1350,763L1316,884L1444,831Z" fill="#f1f4f6" stroke="#f1f4f6" stroke-width="1.51"/><path d="M1274,1614L1252,1722L1431,1673Z" fill="#96a9d0" stroke="#96a9d0" stroke-width="1.51"/><path d="M1167,-270L1277,-182L1400,-231Z" fill="#be8283" stroke="#be8283" stroke-width="1.51"/><path d="M1379,17L1283,185L1408,59Z" fill="#e7a298" stroke="#e7a298" stroke-width="1.51"/><path d="M1379,17L1408,59L1411,20Z" fill="#e19992" stroke="#e19992" stroke-width="1.51"/><path d="M1277,-182L1148,-43L1379,17Z" fill="#dd8e87" stroke="#dd8e87" stroke-width="1.51"/><path d="M1207,134L1283,185L1379,17Z" fill="#eba699" stroke="#eba699" stroke-width="1.51"/><path d="M1188,1295L1211,1508L1237,1274Z" fill="#b4cadc" stroke="#b4cadc" stroke-width="1.51"/><path d="M1143,1139L1302,1156L1316,884Z" fill="#dee8ee" stroke="#dee8ee" stroke-width="1.51"/><path d="M1148,-43L1207,134L1379,17Z" fill="#e69a8f" stroke="#e69a8f" stroke-width="1.51"/><path d="M497,-175L779,-151L1010,-227Z" fill="#c06559" stroke="#c06559" stroke-width="1.51"/><path d="M1073,966L1143,1139L1316,884Z" fill="#e8eaeb" stroke="#e8eaeb" stroke-width="1.51"/><path d="M1224,642L1316,884L1350,763Z" fill="#f8f4f2" stroke="#f8f4f2" stroke-width="1.51"/><path d="M1164,636L1079,882L1224,642Z" fill="#fbece3" stroke="#fbece3" stroke-width="1.51"/><path d="M1133,545L1224,642L1267,450Z" fill="#fbe0d1" stroke="#fbe0d1" stroke-width="1.51"/><path d="M1079,882L1073,966L1316,884Z" fill="#f0ecea" stroke="#f0ecea" stroke-width="1.51"/><path d="M1224,642L1079,882L1316,884Z" fill="#f8f3f0" stroke="#f8f3f0" stroke-width="1.51"/><path d="M1143,1139L1237,1274L1302,1156Z" fill="#cddde7" stroke="#cddde7" stroke-width="1.51"/><path d="M1249,299L1079,278L1267,450Z" fill="#f8c5b0" stroke="#f8c5b0" stroke-width="1.51"/><path d="M1234,1539L1202,1561L1274,1614Z" fill="#9fb2d1" stroke="#9fb2d1" stroke-width="1.51"/><path d="M1207,134L1249,299L1283,185Z" fill="#f1b1a1" stroke="#f1b1a1" stroke-width="1.51"/><path d="M1202,1561L1125,1724L1252,1722Z" fill="#9ba5c8" stroke="#9ba5c8" stroke-width="1.51"/><path d="M1202,1561L1252,1722L1274,1614Z" fill="#9caccf" stroke="#9caccf" stroke-width="1.51"/><path d="M1167,-270L1148,-43L1277,-182Z" fill="#ca837f" stroke="#ca837f" stroke-width="1.51"/><path d="M1207,134L1079,278L1249,299Z" fill="#f3b3a0" stroke="#f3b3a0" stroke-width="1.51"/><path d="M1079,278L1133,545L1267,450Z" fill="#faceb9" stroke="#faceb9" stroke-width="1.51"/><path d="M1133,545L1164,636L1224,642Z" fill="#fce5d7" stroke="#fce5d7" stroke-width="1.51"/><path d="M1073,966L1049,1042L1143,1139Z" fill="#e3e2e2" stroke="#e3e2e2" stroke-width="1.51"/><path d="M1143,1139L1188,1295L1237,1274Z" fill="#c8d8e2" stroke="#c8d8e2" stroke-width="1.51"/><path d="M1079,278L982,460L1133,545Z" fill="#fbcab3" stroke="#fbcab3" stroke-width="1.51"/><path d="M1188,1295L911,1483L1211,1508Z" fill="#acbdd0" stroke="#acbdd0" stroke-width="1.51"/><path d="M1010,-227L1148,-43L1167,-270Z" fill="#c67e78" stroke="#c67e78" stroke-width="1.51"/><path d="M956,1282L911,1483L1188,1295Z" fill="#b9c3cd" stroke="#b9c3cd" stroke-width="1.51"/><path d="M1211,1508L1202,1561L1234,1539Z" fill="#a2b5d2" stroke="#a2b5d2" stroke-width="1.51"/><path d="M1148,-43L1029,221L1207,134Z" fill="#ea9e8d" stroke="#ea9e8d" stroke-width="1.51"/><path d="M1029,221L1079,278L1207,134Z" fill="#f1ac97" stroke="#f1ac97" stroke-width="1.51"/><path d="M911,1483L1202,1561L1211,1508Z" fill="#a5b3cb" stroke="#a5b3cb" stroke-width="1.51"/><path d="M1027,595L1079,882L1164,636Z" fill="#fbe7dc" stroke="#fbe7dc" stroke-width="1.51"/><path d="M911,1483L1125,1724L1202,1561Z" fill="#a2a9c5" stroke="#a2a9c5" stroke-width="1.51"/><path d="M911,1483L919,1705L1125,1724Z" fill="#a1a0bc" stroke="#a1a0bc" stroke-width="1.51"/><path d="M963,-52L1029,221L1148,-43Z" fill="#e59281" stroke="#e59281" stroke-width="1.51"/><path d="M1143,1139L956,1282L1188,1295Z" fill="#c9d4db" stroke="#c9d4db" stroke-width="1.51"/><path d="M62,-272L292,-186L497,-175Z" fill="#a42f33" stroke="#a42f33" stroke-width="1.51"/><path d="M960,380L982,460L1079,278Z" fill="#fac1a6" stroke="#fac1a6" stroke-width="1.51"/><path d="M1027,595L961,863L1079,882Z" fill="#fbe9df" stroke="#fbe9df" stroke-width="1.51"/><path d="M946,1167L956,1282L1143,1139Z" fill="#d0d4d6" stroke="#d0d4d6" stroke-width="1.51"/><path d="M1010,-227L963,-52L1148,-43Z" fill="#d48176" stroke="#d48176" stroke-width="1.51"/><path d="M1133,545L1027,595L1164,636Z" fill="#fce1d0" stroke="#fce1d0" stroke-width="1.51"/><path d="M919,1705L892,1829L1125,1724Z" fill="#9690a8" stroke="#9690a8" stroke-width="1.51"/><path d="M1049,1042L946,1167L1143,1139Z" fill="#dadbdc" stroke="#dadbdc" stroke-width="1.51"/><path d="M982,460L1027,595L1133,545Z" fill="#fcd7c3" stroke="#fcd7c3" stroke-width="1.51"/><path d="M780,718L961,863L1027,595Z" fill="#fcdecf" stroke="#fcdecf" stroke-width="1.51"/><path d="M1029,221L960,380L1079,278Z" fill="#f6b59c" stroke="#f6b59c" stroke-width="1.51"/><path d="M961,863L1073,966L1079,882Z" fill="#f1e7e1" stroke="#f1e7e1" stroke-width="1.51"/><path d="M963,-52L830,-34L1029,221Z" fill="#e48c79" stroke="#e48c79" stroke-width="1.51"/><path d="M961,863L1049,1042L1073,966Z" fill="#ede5df" stroke="#ede5df" stroke-width="1.51"/><path d="M801,609L780,718L1027,595Z" fill="#fcd4c0" stroke="#fcd4c0" stroke-width="1.51"/><path d="M830,-34L725,159L1029,221Z" fill="#e88e77" stroke="#e88e77" stroke-width="1.51"/><path d="M961,863L750,928L1049,1042Z" fill="#efded5" stroke="#efded5" stroke-width="1.51"/><path d="M750,928L946,1167L1049,1042Z" fill="#e5d8d2" stroke="#e5d8d2" stroke-width="1.51"/><path d="M750,928L804,1160L946,1167Z" fill="#e0cec7" stroke="#e0cec7" stroke-width="1.51"/><path d="M982,460L801,609L1027,595Z" fill="#fcd3bc" stroke="#fcd3bc" stroke-width="1.51"/><path d="M740,323L960,380L1029,221Z" fill="#f5b093" stroke="#f5b093" stroke-width="1.51"/><path d="M725,159L740,323L1029,221Z" fill="#ef9d81" stroke="#ef9d81" stroke-width="1.51"/><path d="M779,-151L963,-52L1010,-227Z" fill="#cb766a" stroke="#cb766a" stroke-width="1.51"/><path d="M911,1483L862,1493L919,1705Z" fill="#a6a2b6" stroke="#a6a2b6" stroke-width="1.51"/><path d="M862,1493L831,1682L919,1705Z" fill="#a398af" stroke="#a398af" stroke-width="1.51"/><path d="M862,1493L911,1483L956,1282Z" fill="#b1b3bf" stroke="#b1b3bf" stroke-width="1.51"/><path d="M779,-151L830,-34L963,-52Z" fill="#d67666" stroke="#d67666" stroke-width="1.51"/><path d="M960,380L746,491L982,460Z" fill="#fac1a6" stroke="#fac1a6" stroke-width="1.51"/><path d="M746,491L801,609L982,460Z" fill="#fbc6ac" stroke="#fbc6ac" stroke-width="1.51"/><path d="M742,1212L862,1493L956,1282Z" fill="#beb9be" stroke="#beb9be" stroke-width="1.51"/><path d="M946,1167L804,1160L956,1282Z" fill="#d0cbca" stroke="#d0cbca" stroke-width="1.51"/><path d="M780,718L750,928L961,863Z" fill="#f8dacc" stroke="#f8dacc" stroke-width="1.51"/><path d="M740,323L746,491L960,380Z" fill="#f8b495" stroke="#f8b495" stroke-width="1.51"/><path d="M804,1160L742,1212L956,1282Z" fill="#cec4c2" stroke="#cec4c2" stroke-width="1.51"/><path d="M750,928L708,974L804,1160Z" fill="#e8ccc0" stroke="#e8ccc0" stroke-width="1.51"/><path d="M497,-175L644,-124L779,-151Z" fill="#c25c4f" stroke="#c25c4f" stroke-width="1.51"/><path d="M742,1212L634,1389L862,1493Z" fill="#baacb0" stroke="#baacb0" stroke-width="1.51"/><path d="M831,1682L784,1824L892,1829Z" fill="#958194" stroke="#958194" stroke-width="1.51"/><path d="M831,1682L892,1829L919,1705Z" fill="#998aa0" stroke="#998aa0" stroke-width="1.51"/><path d="M708,974L706,1113L804,1160Z" fill="#e0c6bd" stroke="#e0c6bd" stroke-width="1.51"/><path d="M692,1666L831,1682L862,1493Z" fill="#a593a8" stroke="#a593a8" stroke-width="1.51"/><path d="M634,1389L692,1666L862,1493Z" fill="#aa99a6" stroke="#aa99a6" stroke-width="1.51"/><path d="M725,159L679,234L740,323Z" fill="#ec9476" stroke="#ec9476" stroke-width="1.51"/><path d="M740,323L666,418L746,491Z" fill="#f6ae8d" stroke="#f6ae8d" stroke-width="1.51"/><path d="M626,836L750,928L780,718Z" fill="#f8d1c0" stroke="#f8d1c0" stroke-width="1.51"/><path d="M575,-46L725,159L830,-34Z" fill="#dd755f" stroke="#dd755f" stroke-width="1.51"/><path d="M644,-124L575,-46L830,-34Z" fill="#d36755" stroke="#d36755" stroke-width="1.51"/><path d="M779,-151L644,-124L830,-34Z" fill="#cf6a5b" stroke="#cf6a5b" stroke-width="1.51"/><path d="M692,1666L784,1824L831,1682Z" fill="#9b8397" stroke="#9b8397" stroke-width="1.51"/><path d="M612,1351L634,1389L742,1212Z" fill="#c0aaaa" stroke="#c0aaaa" stroke-width="1.51"/><path d="M669,586L780,718L801,609Z" fill="#fbcab3" stroke="#fbcab3" stroke-width="1.51"/><path d="M746,491L669,586L801,609Z" fill="#fbc2a7" stroke="#fbc2a7" stroke-width="1.51"/><path d="M706,1113L742,1212L804,1160Z" fill="#d6c1bb" stroke="#d6c1bb" stroke-width="1.51"/><path d="M692,1666L582,1855L784,1824Z" fill="#957485" stroke="#957485" stroke-width="1.51"/><path d="M669,586L626,836L780,718Z" fill="#facab4" stroke="#facab4" stroke-width="1.51"/><path d="M539,645L626,836L669,586Z" fill="#f8c0a9" stroke="#f8c0a9" stroke-width="1.51"/><path d="M634,1389L472,1633L692,1666Z" fill="#a68897" stroke="#a68897" stroke-width="1.51"/><path d="M575,-46L629,194L725,159Z" fill="#e07960" stroke="#e07960" stroke-width="1.51"/><path d="M626,836L708,974L750,928Z" fill="#f1ccbc" stroke="#f1ccbc" stroke-width="1.51"/><path d="M666,418L669,586L746,491Z" fill="#f8b798" stroke="#f8b798" stroke-width="1.51"/><path d="M706,1113L612,1351L742,1212Z" fill="#ceb7b1" stroke="#ceb7b1" stroke-width="1.51"/><path d="M679,234L666,418L740,323Z" fill="#f2a07e" stroke="#f2a07e" stroke-width="1.51"/><path d="M504,1805L75,1851L582,1855Z" fill="#854f61" stroke="#854f61" stroke-width="1.51"/><path d="M463,1126L612,1351L706,1113Z" fill="#cfb0aa" stroke="#cfb0aa" stroke-width="1.51"/><path d="M629,194L679,234L725,159Z" fill="#e98a6c" stroke="#e98a6c" stroke-width="1.51"/><path d="M508,398L666,418L679,234Z" fill="#f09c7a" stroke="#f09c7a" stroke-width="1.51"/><path d="M494,263L508,398L679,234Z" fill="#eb8d6f" stroke="#eb8d6f" stroke-width="1.51"/><path d="M504,1805L582,1855L692,1666Z" fill="#936c7d" stroke="#936c7d" stroke-width="1.51"/><path d="M626,836L451,968L708,974Z" fill="#edc0b2" stroke="#edc0b2" stroke-width="1.51"/><path d="M463,1126L706,1113L708,974Z" fill="#e0bdb2" stroke="#e0bdb2" stroke-width="1.51"/><path d="M451,968L463,1126L708,974Z" fill="#e3b7ab" stroke="#e3b7ab" stroke-width="1.51"/><path d="M442,1429L472,1633L634,1389Z" fill="#a98893" stroke="#a98893" stroke-width="1.51"/><path d="M539,645L534,826L626,836Z" fill="#f6c0ae" stroke="#f6c0ae" stroke-width="1.51"/><path d="M666,418L508,398L669,586Z" fill="#f4ab8c" stroke="#f4ab8c" stroke-width="1.51"/><path d="M629,194L494,263L679,234Z" fill="#e8876a" stroke="#e8876a" stroke-width="1.51"/><path d="M472,1633L504,1805L692,1666Z" fill="#9a7387" stroke="#9a7387" stroke-width="1.51"/><path d="M296,1757L75,1851L504,1805Z" fill="#854b60" stroke="#854b60" stroke-width="1.51"/><path d="M534,826L451,968L626,836Z" fill="#efbdae" stroke="#efbdae" stroke-width="1.51"/><path d="M575,-46L450,183L629,194Z" fill="#dc7059" stroke="#dc7059" stroke-width="1.51"/><path d="M508,398L539,645L669,586Z" fill="#f5b094" stroke="#f5b094" stroke-width="1.51"/><path d="M463,1126L417,1348L612,1351Z" fill="#c29e9d" stroke="#c29e9d" stroke-width="1.51"/><path d="M499,-101L575,-46L644,-124Z" fill="#ca594b" stroke="#ca594b" stroke-width="1.51"/><path d="M497,-175L499,-101L644,-124Z" fill="#c15348" stroke="#c15348" stroke-width="1.51"/><path d="M612,1351L442,1429L634,1389Z" fill="#b4979d" stroke="#b4979d" stroke-width="1.51"/><path d="M450,183L494,263L629,194Z" fill="#e37c61" stroke="#e37c61" stroke-width="1.51"/><path d="M417,1348L442,1429L612,1351Z" fill="#b49197" stroke="#b49197" stroke-width="1.51"/><path d="M309,29L342,114L499,-101Z" fill="#cb4f43" stroke="#cb4f43" stroke-width="1.51"/><path d="M508,398L358,585L539,645Z" fill="#f1a58b" stroke="#f1a58b" stroke-width="1.51"/><path d="M499,-101L342,114L575,-46Z" fill="#ce5648" stroke="#ce5648" stroke-width="1.51"/><path d="M342,114L450,183L575,-46Z" fill="#d5614f" stroke="#d5614f" stroke-width="1.51"/><path d="M354,759L534,826L539,645Z" fill="#f3b5a3" stroke="#f3b5a3" stroke-width="1.51"/><path d="M358,585L354,759L539,645Z" fill="#f0a995" stroke="#f0a995" stroke-width="1.51"/><path d="M494,263L363,321L508,398Z" fill="#e7876a" stroke="#e7876a" stroke-width="1.51"/><path d="M354,759L451,968L534,826Z" fill="#eeb4a5" stroke="#eeb4a5" stroke-width="1.51"/><path d="M302,1222L417,1348L463,1126Z" fill="#c59897" stroke="#c59897" stroke-width="1.51"/><path d="M442,1429L280,1597L472,1633Z" fill="#a17585" stroke="#a17585" stroke-width="1.51"/><path d="M472,1633L296,1757L504,1805Z" fill="#926176" stroke="#926176" stroke-width="1.51"/><path d="M363,321L358,585L508,398Z" fill="#eb9075" stroke="#eb9075" stroke-width="1.51"/><path d="M497,-175L292,-186L499,-101Z" fill="#b6443e" stroke="#b6443e" stroke-width="1.51"/><path d="M292,-186L309,29L499,-101Z" fill="#c0413b" stroke="#c0413b" stroke-width="1.51"/><path d="M450,183L363,321L494,263Z" fill="#e2795f" stroke="#e2795f" stroke-width="1.51"/><path d="M234,507L358,585L363,321Z" fill="#e78c74" stroke="#e78c74" stroke-width="1.51"/><path d="M354,759L231,907L451,968Z" fill="#e8a89c" stroke="#e8a89c" stroke-width="1.51"/><path d="M451,968L257,1048L463,1126Z" fill="#dba59d" stroke="#dba59d" stroke-width="1.51"/><path d="M280,1597L296,1757L472,1633Z" fill="#98637c" stroke="#98637c" stroke-width="1.51"/><path d="M257,1048L302,1222L463,1126Z" fill="#cf9a96" stroke="#cf9a96" stroke-width="1.51"/><path d="M246,1405L280,1597L442,1429Z" fill="#a37683" stroke="#a37683" stroke-width="1.51"/><path d="M342,114L363,321L450,183Z" fill="#db6b55" stroke="#db6b55" stroke-width="1.51"/><path d="M231,907L257,1048L451,968Z" fill="#dfa199" stroke="#dfa199" stroke-width="1.51"/><path d="M417,1348L246,1405L442,1429Z" fill="#ae838b" stroke="#ae838b" stroke-width="1.51"/><path d="M302,1222L246,1405L417,1348Z" fill="#b5878c" stroke="#b5878c" stroke-width="1.51"/><path d="M257,1048L214,1100L302,1222Z" fill="#cd9491" stroke="#cd9491" stroke-width="1.51"/><path d="M292,-186L189,11L309,29Z" fill="#c03837" stroke="#c03837" stroke-width="1.51"/><path d="M137,721L354,759L358,585Z" fill="#ea9e8e" stroke="#ea9e8e" stroke-width="1.51"/><path d="M162,579L137,721L358,585Z" fill="#e79583" stroke="#e79583" stroke-width="1.51"/><path d="M342,114L146,244L363,321Z" fill="#d76451" stroke="#d76451" stroke-width="1.51"/><path d="M146,244L234,507L363,321Z" fill="#df775e" stroke="#df775e" stroke-width="1.51"/><path d="M234,507L162,579L358,585Z" fill="#e7917d" stroke="#e7917d" stroke-width="1.51"/><path d="M246,1405L211,1586L280,1597Z" fill="#9c6a7c" stroke="#9c6a7c" stroke-width="1.51"/><path d="M119,143L146,244L342,114Z" fill="#ce5345" stroke="#ce5345" stroke-width="1.51"/><path d="M137,721L231,907L354,759Z" fill="#e9a196" stroke="#e9a196" stroke-width="1.51"/><path d="M170,1230L246,1405L302,1222Z" fill="#b78489" stroke="#b78489" stroke-width="1.51"/><path d="M309,29L189,11L342,114Z" fill="#c94a40" stroke="#c94a40" stroke-width="1.51"/><path d="M189,11L119,143L342,114Z" fill="#c9493f" stroke="#c9493f" stroke-width="1.51"/><path d="M280,1597L211,1586L296,1757Z" fill="#955e77" stroke="#955e77" stroke-width="1.51"/><path d="M214,1100L170,1230L302,1222Z" fill="#c48d8c" stroke="#c48d8c" stroke-width="1.51"/><path d="M0,-164L189,11L292,-186Z" fill="#ae272f" stroke="#ae272f" stroke-width="1.51"/><path d="M62,-272L0,-164L292,-186Z" fill="#9b1b2a" stroke="#9b1b2a" stroke-width="1.51"/><path d="M211,1586L75,1851L296,1757Z" fill="#894d67" stroke="#894d67" stroke-width="1.51"/><path d="M146,244L158,540L234,507Z" fill="#df7b65" stroke="#df7b65" stroke-width="1.51"/><path d="M78,1437L211,1586L246,1405Z" fill="#9d6a7b" stroke="#9d6a7b" stroke-width="1.51"/><path d="M231,907L109,985L257,1048Z" fill="#da9791" stroke="#da9791" stroke-width="1.51"/><path d="M-39,1632L75,1851L211,1586Z" fill="#894967" stroke="#894967" stroke-width="1.51"/><path d="M158,540L162,579L234,507Z" fill="#e38977" stroke="#e38977" stroke-width="1.51"/><path d="M170,1230L78,1437L246,1405Z" fill="#aa7680" stroke="#aa7680" stroke-width="1.51"/><path d="M109,985L214,1100L257,1048Z" fill="#d3948f" stroke="#d3948f" stroke-width="1.51"/><path d="M146,244L-63,341L158,540Z" fill="#d76a57" stroke="#d76a57" stroke-width="1.51"/><path d="M137,721L19,924L231,907Z" fill="#e0968f" stroke="#e0968f" stroke-width="1.51"/><path d="M-63,341L-50,491L158,540Z" fill="#d57060" stroke="#d57060" stroke-width="1.51"/><path d="M19,924L109,985L231,907Z" fill="#d9928d" stroke="#d9928d" stroke-width="1.51"/><path d="M-6,1103L170,1230L214,1100Z" fill="#c48787" stroke="#c48787" stroke-width="1.51"/><path d="M109,985L-6,1103L214,1100Z" fill="#cd8b89" stroke="#cd8b89" stroke-width="1.51"/><path d="M78,1437L-39,1632L211,1586Z" fill="#945a71" stroke="#945a71" stroke-width="1.51"/><path d="M1,735L19,924L137,721Z" fill="#e0908a" stroke="#e0908a" stroke-width="1.51"/><path d="M-21,1220L78,1437L170,1230Z" fill="#af757e" stroke="#af757e" stroke-width="1.51"/><path d="M-62,24L119,143L189,11Z" fill="#be3536" stroke="#be3536" stroke-width="1.51"/><path d="M0,-164L-62,24L189,11Z" fill="#b31c2c" stroke="#b31c2c" stroke-width="1.51"/><path d="M-43,585L1,735L137,721Z" fill="#dd887d" stroke="#dd887d" stroke-width="1.51"/><path d="M-43,585L137,721L162,579Z" fill="#e0897b" stroke="#e0897b" stroke-width="1.51"/><path d="M-6,1103L-21,1220L170,1230Z" fill="#bc7e81" stroke="#bc7e81" stroke-width="1.51"/><path d="M-39,1632L37,1856L75,1851Z" fill="#7b3955" stroke="#7b3955" stroke-width="1.51"/><path d="M158,540L-43,585L162,579Z" fill="#df8474" stroke="#df8474" stroke-width="1.51"/><path d="M-50,491L-43,585L158,540Z" fill="#d97b6d" stroke="#d97b6d" stroke-width="1.51"/><path d="M119,143L-46,169L146,244Z" fill="#c84940" stroke="#c84940" stroke-width="1.51"/><path d="M-46,169L-63,341L146,244Z" fill="#c85146" stroke="#c85146" stroke-width="1.51"/><path d="M-21,1220L-92,1411L78,1437Z" fill="#9e6977" stroke="#9e6977" stroke-width="1.51"/><path d="M-62,24L-46,169L119,143Z" fill="#bb3837" stroke="#bb3837" stroke-width="1.51"/><path d="M19,924L-6,1103L109,985Z" fill="#d08987" stroke="#d08987" stroke-width="1.51"/><path d="M-92,1411L-39,1632L78,1437Z" fill="#8e5a70" stroke="#8e5a70" stroke-width="1.51"/><path d="M-39,1632L-161,1857L37,1856Z" fill="#703553" stroke="#703553" stroke-width="1.51"/><path d="M-204,-194L0,-164L62,-272Z" fill="#8b0a26" stroke="#8b0a26" stroke-width="1.51"/><path d="M1,735L-165,927L19,924Z" fill="#ce8987" stroke="#ce8987" stroke-width="1.51"/><path d="M-165,927L-6,1103L19,924Z" fill="#c58485" stroke="#c58485" stroke-width="1.51"/><path d="M-144,235L-63,341L-46,169Z" fill="#bb4c43" stroke="#bb4c43" stroke-width="1.51"/><path d="M-92,1411L-154,1437L-39,1632Z" fill="#83566e" stroke="#83566e" stroke-width="1.51"/><path d="M-208,-60L-62,24L0,-164Z" fill="#a01229" stroke="#a01229" stroke-width="1.51"/><path d="M-232,855L-165,927L1,735Z" fill="#c58585" stroke="#c58585" stroke-width="1.51"/><path d="M-154,1437L-187,1600L-39,1632Z" fill="#7b4e6a" stroke="#7b4e6a" stroke-width="1.51"/><path d="M-189,1212L-92,1411L-21,1220Z" fill="#9b6d79" stroke="#9b6d79" stroke-width="1.51"/><path d="M-165,927L-257,1048L-6,1103Z" fill="#b57d82" stroke="#b57d82" stroke-width="1.51"/><path d="M-189,1212L-21,1220L-6,1103Z" fill="#ac777e" stroke="#ac777e" stroke-width="1.51"/><path d="M-204,-194L-208,-60L0,-164Z" fill="#8d0b26" stroke="#8d0b26" stroke-width="1.51"/><path d="M-43,585L-256,706L1,735Z" fill="#cb807a" stroke="#cb807a" stroke-width="1.51"/><path d="M-256,706L-232,855L1,735Z" fill="#c38281" stroke="#c38281" stroke-width="1.51"/><path d="M-187,1600L-161,1857L-39,1632Z" fill="#703d5e" stroke="#703d5e" stroke-width="1.51"/><path d="M-257,1048L-189,1212L-6,1103Z" fill="#a8777e" stroke="#a8777e" stroke-width="1.51"/><path d="M-63,341L-103,514L-50,491Z" fill="#c96b5e" stroke="#c96b5e" stroke-width="1.51"/><path d="M-50,491L-103,514L-43,585Z" fill="#cd7569" stroke="#cd7569" stroke-width="1.51"/><path d="M-62,24L-221,108L-46,169Z" fill="#ac3134" stroke="#ac3134" stroke-width="1.51"/><path d="M-103,514L-256,706L-43,585Z" fill="#c67a72" stroke="#c67a72" stroke-width="1.51"/><path d="M-221,108L-144,235L-46,169Z" fill="#ae3c39" stroke="#ae3c39" stroke-width="1.51"/><path d="M-189,1212L-154,1437L-92,1411Z" fill="#8c6373" stroke="#8c6373" stroke-width="1.51"/><path d="M-144,235L-103,514L-63,341Z" fill="#c15e50" stroke="#c15e50" stroke-width="1.51"/><path d="M-208,-60L-221,108L-62,24Z" fill="#9f222d" stroke="#9f222d" stroke-width="1.51"/><path d="M-187,1600L-257,1048L-161,1857Z" fill="#75506b" stroke="#75506b" stroke-width="1.51"/><path d="M-144,235L-256,706L-103,514Z" fill="#be6b60" stroke="#be6b60" stroke-width="1.51"/><path d="M-221,108L-256,706L-144,235Z" fill="#b3574c" stroke="#b3574c" stroke-width="1.51"/><path d="M-189,1212L-187,1600L-154,1437Z" fill="#7f5a6f" stroke="#7f5a6f" stroke-width="1.51"/><path d="M-189,1212L-257,1048L-187,1600Z" fill="#8c6675" stroke="#8c6675" stroke-width="1.51"/><path d="M-232,855L-257,1048L-165,927Z" fill="#b17d81" stroke="#b17d81" stroke-width="1.51"/><path d="M-221,108L-208,-60L-204,-194Z" fill="#931027" stroke="#931027" stroke-width="1.51"/><path d="M-256,706L-257,1048L-232,855Z" fill="#b27e82" stroke="#b27e82" stroke-width="1.51"/></svg>